<?xml version="1.0" encoding="UTF-8" standalone="no"?>
<svg
   width="500"
   height="500"
   version="1.1"
   viewBox="0 0 500.00001 500.00001"
   id="svg6"
   sodipodi:docname="screen-1970469.svg"
   inkscape:version="1.1 (c68e22c387, 2021-05-23)"
   xmlns:inkscape="http://www.inkscape.org/namespaces/inkscape"
   xmlns:sodipodi="http://sodipodi.sourceforge.net/DTD/sodipodi-0.dtd"
   xmlns="http://www.w3.org/2000/svg"
   xmlns:svg="http://www.w3.org/2000/svg">
  <defs
     id="defs10" />
  <sodipodi:namedview
     id="namedview8"
     pagecolor="#ffffff"
     bordercolor="#666666"
     borderopacity="1.0"
     inkscape:pageshadow="2"
     inkscape:pageopacity="0.0"
     inkscape:pagecheckerboard="0"
     showgrid="false"
     inkscape:zoom="1.744"
     inkscape:cx="250"
     inkscape:cy="250.2867"
     inkscape:window-width="1920"
     inkscape:window-height="1057"
     inkscape:window-x="1912"
     inkscape:window-y="-8"
     inkscape:window-maximized="1"
     inkscape:current-layer="svg6" />
  <g
     transform="translate(0 -552.36)"
     id="g4"
     style="fill:#ffffff">
    <path
       d="m88.033 661.66c-7.0653 0-12.752 5.6886-12.752 12.754v207.45c0 7.0653 5.6867 12.752 12.752 12.752h122.43v39.17h-13.889c-2.5684 0-4.6367 2.0684-4.6367 4.6367 0 2.5684 2.0684 4.6367 4.6367 4.6367h106.85c2.5684 0 4.6367-2.0684 4.6367-4.6367 0-2.5684-2.0684-4.6367-4.6367-4.6367h-13.889v-39.17h122.43c7.0653-1e-5 12.752-5.6867 12.752-12.752v-207.45c0-7.0653-5.6866-12.754-12.752-12.754zm3.4863 15.789h316.96v200.05h-316.96z"
       fill="#ffffff"
       id="path2"
       style="fill:#ffffff" />
  </g>
</svg>
