<?xml version="1.0" encoding="UTF-8" standalone="no"?>
<svg
   width="300"
   height="300"
   version="1.1"
   id="svg6"
   sodipodi:docname="musique.svg"
   inkscape:version="1.1 (c68e22c387, 2021-05-23)"
   xmlns:inkscape="http://www.inkscape.org/namespaces/inkscape"
   xmlns:sodipodi="http://sodipodi.sourceforge.net/DTD/sodipodi-0.dtd"
   xmlns="http://www.w3.org/2000/svg"
   xmlns:svg="http://www.w3.org/2000/svg">
  <defs
     id="defs10" />
  <sodipodi:namedview
     id="namedview8"
     pagecolor="#ffffff"
     bordercolor="#666666"
     borderopacity="1.0"
     inkscape:pageshadow="2"
     inkscape:pageopacity="0.0"
     inkscape:pagecheckerboard="0"
     showgrid="false"
     inkscape:zoom="2.9066667"
     inkscape:cx="150.34403"
     inkscape:cy="150.17202"
     inkscape:window-width="1920"
     inkscape:window-height="1057"
     inkscape:window-x="1912"
     inkscape:window-y="-8"
     inkscape:window-maximized="1"
     inkscape:current-layer="svg6" />
  <path
     style="opacity:0;fill:#ffffff;stroke:none"
     d="M 0,0 V 300 H 300 V 0 Z"
     id="path2" />
  <path
     style="fill:#020202; stroke:none;"
     d="M99 175L104 176C105.91 167.976 105 159.209 105 151L105 106C105 98.0871 103.177 87.4646 106.148 80.0046C108.723 73.5403 115.857 71.9943 122 70.662C136.627 67.4897 151.325 64.4912 166 61.5509C182.012 58.3428 198.088 54.9942 214 51.3488C220.977 49.7503 228.782 46.8114 234.812 52.3441C240.053 57.1537 240 63.4348 240 70L240 103L240 160C240 171.257 241.284 183.244 237.289 194C231.471 209.67 215.848 219.086 200 221.561C182.406 224.309 163.258 215.913 156.313 199C152.009 188.516 155.317 177.567 161.554 168.536C164.167 164.753 167.346 160.912 172 160C177.93 153.256 190.346 151.103 199 151.004C202.322 150.966 209.671 152.902 212.397 150.933C216.041 148.299 214 136.049 214 132L214 77C186.605 84.7167 157.873 89.25 130 95L130 176C130 188.573 132.362 203.927 128.402 216C121.12 238.201 92.5464 250.16 71 243.254C52.1316 237.206 39.0788 218.176 48.2631 199.001C50.2798 194.79 53.3606 188.498 58 187C65.8234 176.41 81.6916 174 94 174C87.8133 171.404 78.368 172.793 72 174.375C64.0568 176.349 56.2614 178.746 50.0394 184.301C37.2473 195.722 33.8726 216.689 43.5949 231C47.8573 237.274 54.1738 244.502 61 248.004C84.7595 260.193 118.939 251.595 129.651 226C134.667 214.015 132 197.747 132 185L132 98C144.802 96.3467 157.358 92.978 170 90.4491C183.953 87.658 198.193 85.4014 212 82L212 131C212 135.077 213.83 145.311 210.397 148.227C208.531 149.811 205.227 149.053 203 149.014C197.998 148.926 192.951 148.811 188 149.59C166.591 152.96 146.811 169.307 150.301 193C156.61 235.83 217.872 239.276 239.557 208C247.692 196.267 246 181.528 246 168L246 94C246 83.331 248.416 69.2239 245.196 59.0008C242.137 49.2887 231.647 43.3875 222 44.0903C208.399 45.0811 194.384 49.8693 181 52.5509C164.8 55.7968 147.246 57.7157 131.715 63.3148C123.405 66.3106 108.634 64.7888 102.703 72.2245C97.3481 78.9384 100 92.9364 100 101L100 147C100 156.295 100.702 165.832 99 175z"
     id="path4" />
  <path
     style="opacity:0;fill:#ffffff"
     id="path855"
     d="m 87.468254,178.48088 c 1.230049,-0.11571 2.452389,-0.0516 3.668478,0.14805 0.629625,0.071 1.224685,0.28672 1.820242,0.48899 0,0 12.260776,-8.25592 12.260776,-8.25592 v 0 c -0.64912,-0.26155 -1.30985,-0.47623 -1.96748,-0.71542 -1.21574,-0.22809 -2.43274,-0.44392 -3.674498,-0.46233 0,0 -12.107518,8.79663 -12.107518,8.79663 z" />
  <path
     style="opacity:0;fill:#ffffff"
     id="path857"
     d="m 108.9767,169.34022 c -2.15888,0.1637 -4.32507,0.15105 -6.48767,0.0952 -1.87307,-0.0446 -3.740996,-0.21079 -5.587884,-0.5237 0,0 -11.977443,8.43251 -11.977443,8.43251 v 0 c 1.954494,0.2588 3.91542,0.45774 5.888562,0.50144 2.019102,0.11547 4.038999,0.16867 6.056915,0.29114 0,0 12.10752,-8.79662 12.10752,-8.79662 z" />
  <path
     style="opacity:0;fill:#000000"
     id="path859"
     d="m 112.61124,167.98325 c -0.46223,0.0351 -0.92347,0.0876 -1.3867,0.10523 -3.81597,0.14533 -7.65929,-0.0297 -11.473687,-0.10211 -6.904595,-0.13115 -5.288919,-0.10146 -12.348093,-0.27458 -7.743923,-0.26551 -4.00596,-0.12847 -11.214019,-0.40758 0,0 -9.953717,7.20702 -9.953717,7.20702 v 0 c 7.526071,-0.0369 3.664662,-0.0688 11.584079,0.11218 7.60515,0.35069 15.235925,0.72666 22.737427,2.11811 0,0 12.05471,-8.75827 12.05471,-8.75827 z" />
  <path
     style="opacity:1;fill:#000000"
     id="path966"
     d="m 103.04278,172.94 c -3.566667,-0.75564 -7.187113,-1.30454 -10.825477,-1.5657 -1.041471,-0.0748 -2.085999,-0.098 -3.128998,-0.14704 -3.278838,-0.0338 -6.580433,0.11796 -9.823364,0.63543 -2.450616,0.39104 -3.370772,0.7075 -5.709791,1.34764 0,0 -2.702777,2.07897 -2.702777,2.07897 v 0 c 2.32017,-0.66697 3.294023,-1.01428 5.724724,-1.42341 3.22416,-0.54268 6.513682,-0.70617 9.77764,-0.67211 1.033488,0.0485 2.06864,0.0694 3.100464,0.14549 3.539732,0.261 7.089214,0.77759 10.513296,1.72125 0,0 3.074283,-2.12052 3.074283,-2.12052 z" />
  <path
     style="opacity:1;fill:#ffffff;stroke-width:0.344037"
     d="M 76.693255,244.44284 C 68.292066,242.84871 60.82261,239.02619 55.186954,233.43692 47.084343,225.401 43.766341,214.80005 46.300809,205.04587 c 1.8196,-7.00293 6.908288,-15.37501 10.456777,-17.20384 0.666928,-0.34373 2.01846,-1.47996 3.003405,-2.52496 6.184155,-6.56121 15.25972,-9.97893 29.000476,-10.92114 4.863616,-0.3335 5.996876,-0.31343 7.912844,0.14018 5.443089,1.28866 7.291349,1.65878 7.456859,1.49327 0.0975,-0.0975 0.40529,-1.69784 0.68397,-3.55631 0.43326,-2.88927 0.47371,-8.63982 0.27911,-39.67491 -0.12517,-19.96273 -0.23757,-38.772932 -0.24978,-41.800455 -0.0467,-11.580524 2.66843,-15.96836 11.58162,-18.716826 3.08179,-0.950297 17.83422,-4.103841 44.38821,-9.488615 25.67253,-5.206025 41.03905,-8.469188 53.0045,-11.255791 10.45085,-2.433868 13.64232,-2.686257 17.08043,-1.350761 4.56043,1.771451 7.72812,6.248165 8.54569,12.077137 0.48093,3.428777 0.5089,117.800611 0.0297,121.527051 -0.93242,7.25121 -3.76161,14.56529 -7.57471,19.58224 -6.59868,8.68199 -17.49085,15.05979 -30.29443,17.73858 -4.06055,0.84956 -12.49527,0.84448 -16.51377,-0.01 -16.66589,-3.54354 -28.53408,-15.01889 -30.34996,-29.34538 -0.83754,-6.60783 1.42758,-14.52933 6.27892,-21.95836 3.33323,-5.10429 6.52805,-8.16774 9.56236,-9.16916 0.68611,-0.22643 2.15565,-1.1675 3.26565,-2.09125 6.47069,-5.38496 18.06777,-8.08653 29.649,-6.9068 7.20797,0.73425 9.22643,0.26735 10.33518,-2.3907 0.57955,-1.38937 0.61048,-3.53091 0.53064,-36.73913 -0.0466,-19.39507 -0.18828,-35.355941 -0.31476,-35.468604 -0.12648,-0.112663 -3.01666,0.54704 -6.42263,1.466006 -12.32467,3.32533 -25.76613,6.183342 -64.85091,13.78903 l -12.90138,2.510539 V 136.59 c 0,22.98616 0.13849,47.36642 0.30776,54.17835 0.33719,13.5702 0.13733,16.91183 -1.36693,22.85373 -2.68753,10.61591 -10.5702,19.90408 -21.70133,25.57076 -7.786303,3.96388 -13.430682,5.40461 -21.964268,5.60641 -4.165425,0.0985 -6.598962,-0.004 -8.455827,-0.35641 z"
     id="path1116" />
</svg>