<?xml version="1.0" encoding="UTF-8" standalone="no"?>
<svg
   width="500"
   height="500"
   version="1.1"
   id="svg14"
   sodipodi:docname="reflexion.svg"
   inkscape:version="1.1 (c68e22c387, 2021-05-23)"
   xmlns:inkscape="http://www.inkscape.org/namespaces/inkscape"
   xmlns:sodipodi="http://sodipodi.sourceforge.net/DTD/sodipodi-0.dtd"
   xmlns="http://www.w3.org/2000/svg"
   xmlns:svg="http://www.w3.org/2000/svg">
  <defs
     id="defs18">
    <filter
       inkscape:collect="always"
       style="color-interpolation-filters:sRGB"
       id="filter2270"
       x="-0.16100918"
       y="-0.13411065"
       width="1.3220184"
       height="1.2682213">
      <feGaussianBlur
         inkscape:collect="always"
         stdDeviation="12.356018"
         id="feGaussianBlur2272" />
    </filter>
    <filter
       inkscape:collect="always"
       style="color-interpolation-filters:sRGB"
       id="filter2310"
       x="-0.013972075"
       y="-0.013988631"
       width="1.0279441"
       height="1.0279773">
      <feGaussianBlur
         inkscape:collect="always"
         stdDeviation="0.69947741"
         id="feGaussianBlur2312" />
    </filter>
  </defs>
  <sodipodi:namedview
     id="namedview16"
     pagecolor="#ffffff"
     bordercolor="#666666"
     borderopacity="1.0"
     inkscape:pageshadow="2"
     inkscape:pageopacity="0.0"
     inkscape:pagecheckerboard="0"
     showgrid="false"
     inkscape:zoom="1.744"
     inkscape:cx="250"
     inkscape:cy="250.2867"
     inkscape:window-width="1920"
     inkscape:window-height="1057"
     inkscape:window-x="1912"
     inkscape:window-y="-8"
     inkscape:window-maximized="1"
     inkscape:current-layer="svg14" />
  <path
     style="fill:#ffffff;stroke:none;opacity:0"
     d="M0 0L0 500L500 500L500 0L0 0z"
     id="path2" />
  <path
     style="fill:#ffffff;stroke:none"
     d="M250 22.534C245.624 23.578 242.064 26.4413 241.228 31.0008C239.274 41.6685 241 54.1546 241 65C241 70.5957 239.885 77.6027 241.514 82.9992C243.463 89.4565 249.79 91.8907 255.999 90.6204C261.16 89.5645 264.653 86.2022 265.66 81C267.662 70.6524 266 58.5314 266 48C266 42.3335 267.031 35.4413 265.146 30.0146C262.961 23.7252 256.235 21.0465 250 22.534M101.004 82.7423C94.2372 85.3632 91.0689 94.6498 94.9383 100.83C98.5774 106.643 105.032 111.425 109.91 116.17C116.178 122.266 121.849 130.153 129.015 135.196C132.866 137.906 138.479 139.007 142.996 137.258C150.857 134.213 151.401 124.506 147.772 118.001C145.492 113.915 141.563 111.27 138.424 107.91C135.153 104.408 131.623 101.253 128.285 97.8302C121.38 90.7487 112.592 78.2539 101.004 82.7423M394.09 83.0131C390.694 84.7463 387.696 88.3875 385.011 91.0386C379.169 96.8054 373.562 102.816 367.715 108.576C363.838 112.393 358.66 116.038 356.179 121C350.66 132.039 364.016 141.706 374 136.825C378.835 134.461 382.304 129.742 386.039 126.035C394.221 117.914 407.354 108.873 411.851 98.0008C415.998 87.9752 403.275 78.3244 394.09 83.0131M250 124.464C230.949 126.131 213.273 128.803 196.09 138.087C148.234 163.942 125.016 220.649 138.439 272.961C142.301 288.01 150.083 302.828 159.669 315C165.265 322.105 172.329 328.241 177.074 336.004C180.825 342.141 184.855 349.11 186.961 356C191.237 369.993 191.049 382.379 205 390.881C212.623 395.527 222.437 394 231 394L271 394C277.483 394 284.542 394.79 290.961 393.856C295.387 393.213 299.643 389.222 303.011 386.481C307.666 382.693 312.903 376.589 315.126 370.91C317.206 365.596 317.533 359.469 319.355 354C321.787 346.699 325.349 340.283 329.77 334C341.798 316.904 355.718 300.372 364.012 280.91C367.952 271.663 369.882 259.953 370.83 250C371.897 238.795 370.356 227.8 367.665 217C365.552 208.521 363.75 200.044 359.961 192.09C345.994 162.771 321.111 142.134 291 131.204C278.288 126.59 263.673 123.267 250 124.464z"
     id="path4" />
  <path
     style="fill:#000000;stroke:none;opacity:1;filter:url(#filter2270)"
     d="M251 149.514C225.068 151.143 198.273 162.505 181.725 183.17C172.839 194.265 167.506 206.439 163.731 219.996C160.471 231.701 158.941 242.861 161.245 255C164.507 272.194 171.437 288.041 182.178 301.83C187.546 308.721 194.319 314.457 198.91 322.004C204.912 331.871 209.526 341.854 212.575 353C213.962 358.071 213.665 365.283 218.482 368.566C223.02 371.66 231.744 370 237 370C252.138 370 267.912 371.289 282.985 369.941C290.464 369.272 289.692 361.791 291.685 356.285C296.805 342.141 301.589 329.457 310.347 317.015C315.633 309.506 322.884 303.446 328.165 295.91C335.083 286.038 340.27 273.831 342.539 262C351.869 213.358 323.826 165.066 275 153.13C267.078 151.193 259.27 148.994 251 149.514z"
     id="path6" />
  <path
     style="fill:#ffffff;stroke:none"
     d="M251 177C243.526 164.694 223.302 168.466 215.34 178.015C212.904 180.937 211.742 184.994 208.776 187.44C203.629 191.685 197.091 192.605 192.529 198.09C186.158 205.751 187.092 213.6 184.748 222.424C183.049 228.823 179.702 234.147 179.185 241C178.666 247.879 181.156 256.157 184.757 261.961C186.467 264.717 189.113 267.05 190.411 270.039C191.629 272.843 190.973 276.041 191.468 279C192.435 284.783 194.708 290.323 198.68 294.699C203.968 300.525 210.63 300.221 216.675 304.013C219.273 305.643 220.757 308.643 223.093 310.606C226.669 313.612 231.397 314.975 236 315.239C242.053 315.587 246.426 311.801 252 311.348C254.821 311.119 257.412 313.167 260 314.012C264.216 315.387 268.665 315.608 273 314.707C280.438 313.161 282.447 307.526 288.326 303.998C290.892 302.458 294.24 302.302 297 301.12C303.852 298.183 308.857 292.962 311.532 286C313.487 280.91 312.068 274.813 314.454 270.039C317.645 263.657 322.583 259.336 324.181 252C326.793 240.001 322.789 232.104 319.637 221C317.062 211.927 318.306 204.99 311.331 197.289C306.73 192.209 300.238 191.481 295.498 187.273C291.935 184.109 290.815 178.877 287.127 175.529C275.457 164.937 262.748 170.461 251 177z"
     id="path8" />
  <path
     style="fill:#000000;stroke:none;opacity:1;filter:url(#filter2310)"
     d="M222 200C212.416 200.026 202.236 202.593 199.109 213C197.888 217.061 199.307 221.065 198.35 225C197.486 228.553 194.784 231.54 193.549 235C190.588 243.29 193.419 250.461 197 258C202.604 254.309 207.344 250.582 214 249C214.555 253.122 215.532 257.11 217 261C204.794 264.826 198.537 281.294 212.015 288.558C216.816 291.145 222.015 290.573 227 289C228.014 292.599 228.581 296.948 231.303 299.721C236.437 304.948 244.268 301.721 245.656 294.999C247.082 288.093 246 280.034 246 273L246 231C240.085 234.099 234.655 236.141 228 237L228 224C242.359 222.057 246.02 212.15 246 199C245.993 194.284 246.074 189.139 242.442 185.569C237.151 180.368 227.853 181.827 224.09 188.044C221.9 191.661 222.011 195.929 222 200M277 224L277 237C270.345 236.141 264.915 234.099 259 231L259 275C259 281.511 257.68 289.695 259.434 295.995C261.229 302.445 268.986 304.539 273.697 299.721C276.272 297.087 276.713 293.485 277 290C281.653 290.038 286.544 291.162 290.996 289.383C298.493 286.386 303.251 276.708 296.772 270.228C291.581 265.039 287.87 269.845 282.464 268.339C278.943 267.358 276.052 261.769 274 259C278.395 257.636 282.396 255.048 287 254.329C293.826 253.265 300.189 256.955 306 260C310.803 252.021 314.337 244.469 311.377 235C310.265 231.446 307.555 228.567 306.6 225C305.638 221.413 307.042 217.693 306.068 214C303.157 202.968 293.148 200.028 283 200C282.964 195.656 282.794 190.876 280.157 187.188C276.13 181.558 267.495 180.621 262.558 185.558C258.7 189.416 259.002 194.968 259 200C258.996 212.526 263.004 222.77 277 224z"
     id="path10" />
  <path
     style="fill:#ffffff;stroke:none"
     d="M41.0154 229.742C32.6375 233.046 32.6994 248.875 41.0432 252.258C44.8492 253.801 49.9754 253 54 253L81 253C85.3083 253 91.0346 253.959 95 251.972C103.498 247.714 107.05 233.179 95.9954 229.653C91.6944 228.281 86.4581 229 82 229L57 229C52.1099 229 45.6397 227.919 41.0154 229.742M409.043 229.742C400.716 233.118 401.024 248.481 409.055 251.991C413.189 253.797 418.599 253 423 253L452 253C456.631 253 462.552 253.855 466.737 251.427C474.023 247.2 474.094 233.092 465.985 229.894C461.784 228.237 456.424 229 452 229L424 229C419.424 229 413.362 227.991 409.043 229.742M134 343.653C129.103 345.186 125.51 349.495 122 353L104 371C100.964 374.037 97.1302 377.098 95.179 381C90.6193 390.119 98.5847 401.402 108.91 398.681C113.34 397.514 116.897 392.107 120 389L139 370C142.347 366.651 146.493 363.279 148.682 359C153.59 349.408 143.176 340.779 134 343.653M363.039 343.738C356.899 346.12 352.755 354.665 356.179 360.715C359.263 366.163 365.481 370.876 369.965 375.17C375.892 380.847 381.321 387.07 387.17 392.826C391.156 396.749 396.265 400.293 401.999 397.99C408.536 395.365 412.718 387.765 409.991 381C408.056 376.202 403.743 373.199 400.17 369.715C393.362 363.076 387.099 355.871 380.09 349.428C375.203 344.937 370.095 341.002 363.039 343.738M285 458C290.342 456.219 296.108 454.19 300 449C302.008 446.322 302.304 442.826 304 440L305 441C305 434.314 306.972 423.865 303.258 418.015C298.656 410.766 291.584 411 284 411L240 411C228.59 411 202.742 405.997 200.214 422C198.799 430.953 198.587 444.643 205.174 451.56C208.751 455.316 215.141 456.639 218.062 460.43C219.862 462.767 219.953 466.253 220.749 469C222.601 475.387 226.329 479.928 233 481.471C238.092 482.648 243.806 482 249 482C263.872 482 279.984 484.917 284.725 467C285.585 463.751 285.709 461.269 285 458z"
     id="path12" />
</svg>
