<?xml version="1.0" encoding="UTF-8" standalone="no"?>
<svg
   width="500"
   height="500"
   version="1.1"
   id="svg16"
   sodipodi:docname="savoir.svg"
   inkscape:version="1.1 (c68e22c387, 2021-05-23)"
   xmlns:inkscape="http://www.inkscape.org/namespaces/inkscape"
   xmlns:sodipodi="http://sodipodi.sourceforge.net/DTD/sodipodi-0.dtd"
   xmlns="http://www.w3.org/2000/svg"
   xmlns:svg="http://www.w3.org/2000/svg">
  <defs
     id="defs20" />
  <sodipodi:namedview
     id="namedview18"
     pagecolor="#ffffff"
     bordercolor="#666666"
     borderopacity="1.0"
     inkscape:pageshadow="2"
     inkscape:pageopacity="0.0"
     inkscape:pagecheckerboard="0"
     showgrid="false"
     inkscape:zoom="1.744"
     inkscape:cx="250.57339"
     inkscape:cy="250.2867"
     inkscape:window-width="1920"
     inkscape:window-height="1057"
     inkscape:window-x="1912"
     inkscape:window-y="-8"
     inkscape:window-maximized="1"
     inkscape:current-layer="svg16" />
  <path
     style="fill:#ffffff;stroke:none;opacity:0"
     d="M0 0L0 500L500 500L500 0L0 0z"
     id="path2" />
  <path
     style="fill:#ffffff;stroke:none"
     d="M77 68L77 381C116.008 381 154.512 386.471 192 397.424C204.916 401.198 217.538 405.758 230 410.799C235.064 412.848 241.432 417.447 247 417.292C252.731 417.132 258.791 412.573 264 410.452C275.088 405.938 286.481 401.715 298 398.427C337.02 387.29 376.413 381 417 381L417 68C378.888 68 341.939 71.9513 305 81.7346C291.396 85.3377 278.157 90.0118 265 94.9499C259.593 96.9792 252.847 101.732 247 101.732C240.262 101.732 232.201 96.2131 226 93.8109C212.941 88.7525 199.457 84.9502 186 81.1404C150.418 71.0666 113.794 68 77 68z"
     id="path4" />
  <path
     style="fill:#666666;stroke:none;opacity:1"
     d="M95 87L95 364C128.806 364 162.442 370.331 195 379.151C213.017 384.032 230.191 394.03 249 394C258.049 393.985 265.658 390.362 274 387.192C282.156 384.093 290.577 381.433 299 379.151C331.558 370.331 365.189 364 399 364L399 87C365.383 87.0926 331.233 93.8994 299 103.141C283.269 107.652 266.4 117.974 250 118C230.162 118.032 212.889 108.286 194 102.909C162.103 93.8291 128.242 87.0916 95 87z"
     id="path6" />
  <path
     style="fill:#ffffff;stroke:none"
     d="M41 113L41 417C87.1457 417 132.986 421.198 178 431.884C194.228 435.737 210.196 440.348 226 445.667C232.24 447.768 240.427 453.241 247 453.22C250.122 453.21 253.19 451.176 256 450.012C261.243 447.838 266.657 446.121 272 444.218C286.674 438.991 301.895 435.202 317 431.475C361.366 420.526 407.488 417 453 417L453 113L434 113L434 399C393.66 399.111 351.207 404.087 312 413.873C297.918 417.389 283.79 420.754 270 425.333C263.105 427.623 254.234 432.646 247 432.862C240.736 433.049 232.932 428.303 227 426.333C213.541 421.863 199.797 418.155 186 414.884C144.791 405.115 101.345 399.028 59 399L59 113L41 113M335 295C360.162 286.543 390.344 260.467 379.184 231C377.668 226.996 375.683 223.416 373.1 220C367.195 212.187 359.252 205.91 351 200.709C346.804 198.064 339.655 196.246 337.028 191.787C333.945 186.554 336.315 176.904 335.91 171C334.618 152.125 327.507 129.514 307 123.927C292.387 119.946 277.237 124.416 264 130.784C259.017 133.181 252.551 139.725 247 140.01C241.32 140.302 233.176 132.321 228 129.89C210.83 121.825 185.847 117.427 171.301 133.093C163.037 141.994 158.565 156.01 158.039 168C157.757 174.434 160.623 187.362 156.397 192.61C152.587 197.34 144.078 199.74 139 203.079C124.26 212.77 109.852 229.055 112.289 248C114.315 263.747 126.245 276.301 139 284.769C143.95 288.054 153.925 291.049 156.972 296.213C160.257 301.78 157.763 312.692 158.039 319C158.735 334.882 164.809 351.955 179 360.521C194.043 369.601 214.336 364.73 229 357.398C234.112 354.842 240.361 348.72 246 347.98C250.368 347.406 255.411 352.239 259 354.279C267.161 358.919 276.593 363.474 286 364.711C296.078 366.036 307.242 365.454 316 359.867C331.889 349.732 335.999 328.492 336 311C336 305.661 336.521 300.146 335 295z"
     id="path8" />
  <path
     style="fill:#808080;stroke:none"
     d="M175 187C185.307 183.704 198.435 183.474 207.999 178.686C212.302 176.532 215.133 172.276 218.325 168.83C223.428 163.321 228.835 158.296 233 152C223.098 145.448 211.371 138.514 199 139.21C181.526 140.193 176.479 155.248 174.715 170C174.034 175.694 173.354 181.433 175 187M260 152C264.185 157.941 269.921 162.555 274.715 168C277.816 171.523 280.796 176.407 285.09 178.567C288.886 180.477 293.868 180.769 298 181.6C305.095 183.028 312.107 184.796 319 187C319 178.883 320.031 169.968 318.331 162C317.508 158.142 316.095 154.417 314.12 151.001C301.367 128.941 276.046 143.102 260 152M234 177L260 177C257.492 173.44 251.867 165.207 247 165.207C242.133 165.207 236.508 173.44 234 177M240 194.428C232.488 195.507 225.38 197.912 219.001 202.101C213.865 205.474 209.292 209.969 205.774 215.004C181.575 249.64 210.697 299.208 253 293.711C260.098 292.788 266.909 290.542 273 286.768C308.903 264.52 302.451 206.146 260 195.514C253.559 193.901 246.572 193.485 240 194.428M177 204C178.482 209.261 180.205 214.595 181 220C187.445 216.345 191.564 205.456 195 199C188.919 199.894 182.624 201.511 177 204M299 199C302.308 206.676 307.463 213.425 311 221C314.465 216.143 315.743 208.899 316 203L299 199M161 278C163.617 271.163 164.95 263.92 167.344 257C168.764 252.896 171.349 248.428 171.349 244C171.349 239.873 169.012 235.839 167.742 232C165.335 224.725 163.737 217.149 161 210C155.27 212.085 149.807 215.264 145 219.015C140.3 222.683 135.958 226.785 132.955 232C121.219 252.38 143.531 271.604 161 278M332 210C330.853 217.798 328.163 225.538 325.667 233C324.517 236.437 322.42 240.326 322.42 244C322.42 247.674 324.517 251.563 325.667 255C328.163 262.462 330.853 270.202 332 278C347.913 273.407 367.173 257.348 363.66 239C361.057 225.406 344.487 213.604 332 210z"
     id="path10" />
  <path
     style="fill:#ffffff;stroke:none"
     d="M243 227.532C221.576 232.604 229.648 265.471 251 260.316C272.005 255.244 264.188 222.517 243 227.532z"
     id="path12" />
  <path
     style="fill:#808080;stroke:none"
     d="M182 267C179.886 272.522 178.602 278.313 177 284C182.677 286.443 188.982 287.624 195 289C191.147 281.761 187.222 273.297 182 267M311 267C307.131 274.378 302.214 281.321 299 289L316 285C315.743 279.101 314.465 271.857 311 267M175 301C170.618 315.824 175.533 344.903 194 347.786C209.891 350.267 220.437 342.34 234 336C229.611 329.769 223.592 324.798 218.464 319.17C215.542 315.963 212.726 311.488 208.829 309.43C204.725 307.262 199.478 307.103 195 306.193C188.275 304.826 181.535 303.09 175 301M260 336C276.08 344.917 302.541 358.591 314.601 335.999C316.251 332.908 317.548 329.418 318.32 326C320.108 318.087 319 309.078 319 301C312.349 302.778 305.763 304.819 299 306.193C294.536 307.1 289.166 307.132 285.09 309.314C280.687 311.671 277.517 316.758 274.255 320.424C269.573 325.684 264.06 330.236 260 336M234 311C236.508 314.56 242.133 322.793 247 322.793C251.867 322.793 257.492 314.56 260 311L234 311z"
     id="path14" />
</svg> 
