<?xml version="1.0" encoding="UTF-8" standalone="no"?>
<svg width="300" height="300" viewBox="0 0 300 300" version="1.1">
  <path
     style="opacity:0;mix-blend-mode:color;fill:#fefefe;fill-opacity:0.995935;stroke:none"
     d="M 0,0 V 300 H 300 V 0 Z"
     id="path2" />
  <path
     style="fill:#0b0e1b;stroke:none;opacity:1"
     d="M145 40.4244C117.706 44.0081 93.2506 52.2049 73.0147 72.0394C63.9465 80.9276 56.8703 91.682 51.2477 103C45.3178 114.937 41.8831 127.743 40.9113 141C39.5464 159.62 41.3636 177.5 48.4529 195C67.3464 241.64 117.584 269.132 167 262.711C180.93 260.9 194.987 255.557 207 248.396C258.184 217.883 278.682 152.239 250.68 99C244.049 86.3941 234.708 75.4578 224 66.159C213.602 57.1297 201.019 50.3429 188 46C174.662 41.5504 159.086 38.5748 145 40.4244z"
     id="path4" />
  <path
     style="fill:#fefefe; stroke:none;"
     d="M90 65C91.8117 74.6156 93.9702 83.6887 97 93C106.821 88.6295 115.069 80.8591 125 76.3086C150.972 64.4081 181.721 58.7499 210 64C203.615 57.0891 192.77 53.5283 184 50.6698C152.021 40.2466 117.727 46.6529 90 65M116 125C121.381 123.724 125.4 119.983 130 117.054C137.691 112.158 145.653 107.552 154 103.862C172.788 95.5553 193.399 89.8428 214 89.0401C221.936 88.7309 230.096 90.3763 238 91C234.349 83.8485 227.214 74.9482 220 71.1644C212.881 67.4302 201.839 68 194 68C172.783 68 152.854 69.7737 133 78.0116C124.364 81.5947 115.642 86.0356 108 91.439C105.423 93.2613 101.527 95.6027 100.994 99.0147C100.567 101.747 102.602 104.734 103.862 107C107.415 113.393 111.991 118.934 116 125M144 183C145.225 176.682 146.521 170.42 147.074 164C147.262 161.82 147.921 159.27 146.883 157.21C145.43 154.328 141.546 152.712 139 150.971C133.71 147.354 128.591 143.462 124 138.985C105.43 120.877 87.1814 96.0975 86 69C78.7131 72.3981 66.5527 83.6078 65.2431 92C63.8898 100.672 69.0498 112.053 72.064 120C83.9081 151.225 110.997 176.17 144 183M121 129C126.11 136.249 133.716 141.709 141 146.656C143.482 148.341 146.78 151.303 150 150.992C153.341 150.67 156.384 147.279 159 145.439C164.6 141.499 170.778 137.888 177 135.028C201.037 123.978 228.043 119.284 254 126C252.838 118.132 248.751 102.61 241.787 97.9383C239.225 96.2196 235.949 96.1991 233 95.8449C225.319 94.9223 217.735 94.9876 210 95C177.805 95.0517 146.556 110.696 121 129M59 99C54.4733 109.873 47.3013 121.83 47.2755 134C47.264 139.389 50.9075 145.289 53.2477 150C59.7452 163.079 67.9212 175.422 78.0394 186C88.3378 196.767 100.658 206.08 114 212.752C117.429 214.466 123.675 218.62 127.671 217.292C130.563 216.331 131.987 212.466 133.244 210C136.801 203.022 140.661 195.783 142 188C101.502 176.508 66.804 142.067 61 99L59 99M187 136C192.733 166.88 186.636 202.987 172.63 231C167.98 240.299 161.456 248.239 156 257C165.358 256.974 178.746 256.128 186.829 250.914C194.784 245.784 200.658 233.964 205.396 226C223.533 195.513 227.74 162.719 225 128C212.223 128.106 198.7 130.814 187 136M230 128C235.116 155.459 230.291 185.667 218.691 211C213.128 223.149 204.099 233.877 199 246C228.25 233.396 249.779 202.888 255.386 172C257.129 162.395 257.224 152.738 256.985 143C256.907 139.808 257.007 134.249 254.4 131.938C249.456 127.556 236.264 128.017 230 128M181 138C172.664 142.866 160.419 147.099 154.6 155.174C150.972 160.207 151.709 169.06 150.715 175C149.06 184.883 145.858 194.9 141.691 204C133.54 221.801 121.048 233.887 108 248C116.915 252.169 126.329 254.688 136 256.385C139.932 257.075 145.28 257.872 148.985 255.972C155.245 252.763 159.657 243.741 163.305 238C176.732 216.869 183 189.827 183 165C183 157.312 185.449 144.512 181 138M46 147C46 174.8 53.1412 200.855 72.1705 222C78.3239 228.837 85.3095 234.871 93 239.921C95.7154 241.705 99.5285 244.796 103 244.187C106.036 243.654 108.804 240.801 111 238.829C116.253 234.113 121.104 228.889 125 223C100.832 211.562 80.1199 197.568 63.6543 176C56.6861 166.873 52.326 156.404 46 147z"
     id="path6" />
</svg>
