<?xml version="1.0" encoding="UTF-8" standalone="no"?>
<svg width="300" height="300" viewBox="0 0 300 300" version="1.1">
  <path
     style="fill:#fefefe;stroke:none;opacity:0"
     d="M0 0L0 300L300 300L300 0L0 0z"
     id="path2" />
  <path
     style="fill:#000000;stroke:none"
     d="M148 174C157.463 178.014 164.324 188.376 171.579 195.446C174.441 198.235 178.267 201.151 179.591 205.09C180.822 208.752 179.792 213.179 180.289 217C181.471 226.072 185.829 233.813 193.166 239.405C200.415 244.931 208.101 246.222 217 245.985C220.761 245.885 225.873 245.227 227.928 241.522C229.387 238.892 227.508 236.493 225.815 234.576C221.628 229.835 216.858 223.552 211 221C213.789 216.605 218.055 212.388 222 209C225.314 216.317 233.632 219.747 237 227C239.296 226.992 242.469 227.434 244.436 225.972C246.956 224.098 246.875 219.798 247.271 217C248.592 207.652 245.935 198.954 240.96 191.05C237.058 184.852 228.205 179.949 221 179.174C216.535 178.693 211.316 179.951 207.039 178.411C200.176 175.941 193.961 166.767 188.87 161.73C185.805 158.698 175.924 152.062 177.316 147C178.137 144.016 181.7 141.498 183.8 139.4C189.797 133.409 195.453 126.658 202.729 122.19C205.805 120.301 210.249 118.049 213.566 120.757C216.612 123.243 215.655 127.564 216.34 130.961C217.85 138.449 225.326 148.738 233.961 145.143C237.329 143.741 239.883 140.525 242.4 137.999C248.314 132.064 262.313 123.016 258.262 113.171C254.637 104.362 239.309 102.245 231 102C236.598 91.5277 227.185 79.7722 220.265 72.8457C213.409 65.9821 206.003 59.012 196.715 55.5062C183.642 50.572 166.327 52.4155 153 55L153 72C156.633 72.2362 159.574 73.5972 163.039 74.5756C165.753 75.3417 168.275 76.0932 170.714 77.5594C189.666 88.9524 168.187 107.653 158.75 116.8C155.973 119.492 153.317 122.006 150 124C143.836 113.607 132.208 106.612 124.569 97.2708C119.625 91.2253 123.165 82.1077 120.945 75.0008C116.866 61.9372 102.172 52.8675 89 53.0039C84.6134 53.0493 77.7902 53.5884 75.0177 57.6844C73.1927 60.3808 75.2003 63.0858 76.9784 65.1304C80.4249 69.0936 93.2766 77.353 89.0285 83.0795C80.7134 94.2884 73.0795 79.6277 66.2708 74.2284C60.2479 69.4522 56.6444 75.3159 55.733 81.0147C55.4161 82.9966 55.0787 84.9867 55.0787 87C55.0787 90.1297 55.4912 93.7986 56.2847 96.8302C59.6868 109.829 71.346 118.3 84 120.536C88.3183 121.299 93.704 119.778 97.7407 121.448C103.801 123.957 109.568 132.283 114.13 136.87C116.874 139.629 123.893 144.75 124.558 148.725C124.94 151.007 122.674 152.159 121.042 153.149C116.873 155.677 112.57 158.07 108.914 161.329C99.1835 170.006 90.3161 179.926 81.0247 189.086C78.2246 191.846 75.7696 195.214 72.561 197.525C68.4103 200.516 58.2156 199.553 57.4622 205.98C57.0109 209.83 61.6068 213.527 64.0247 215.914C71.1234 222.925 78.0898 229.825 84.6952 237.289C87.1286 240.039 90.6148 243.863 94.7369 242.371C99.1025 240.791 99.1469 234.672 100.482 231.039C101.446 228.419 103.175 226.248 105.004 224.17C111.892 216.343 119.893 208.426 127.559 201.33C135.686 193.807 144.716 184.935 148 174z"
     id="path4" />
  <path
     style="fill:#fefefe; stroke:none;"
     d="M89 62L88 66C92.1912 66.5188 102.367 75.4044 101.826 80.0432C101.559 82.3326 99.6628 84.2325 98.2593 85.9105C94.7113 90.1522 89.6616 98.0773 83.9468 99.3873C76.5099 101.092 70.4454 88.7518 64 86C64.2658 98.4787 71.7848 110.726 85.0008 112.699C90.4497 113.513 97.1515 110.567 102 113.604C114.102 121.186 120.931 136.905 134 143C137.164 138.597 141.273 134.939 145 131C137.652 118.832 123.426 111.611 115.515 99.8302C112.451 95.2681 115.512 89.1709 114.675 84C112.33 69.5114 102.02 64.4258 89 62M164 62L164 64C174.695 66.6246 188.891 76.6557 188.892 89C188.892 94.0935 184.455 98.7287 185.527 103.91C186.307 107.684 190.364 110.499 192 114C200.425 113.797 211.529 105.92 219.446 112.574C224.618 116.921 224.336 123.008 225.844 128.91C226.379 131.003 227.557 134.729 230.135 135.094C232.37 135.411 234.348 132.397 235.673 130.999C239.957 126.481 243.92 121.65 249 118C242.824 110.961 231.915 114.816 225.853 107.529C220.665 101.292 223.668 92.7539 219.786 86.1705C213.175 74.9563 198.731 64.9111 186 62.4684C178.96 61.1176 171.148 62 164 62M100 77L101 78L100 77M178 82L179 83L178 82M61 104L62 105L61 104M122 163C123.778 169.292 130.08 173.007 134 178C150.042 160.507 168.12 144.295 183.745 126.385C187.588 121.979 185.089 112.298 177.95 113.647C171.674 114.834 166.167 123.196 162.157 127.565C156.406 133.833 149.766 139.302 143.85 145.417C137.244 152.245 131.476 160.263 122 163M156 166C162.945 179.03 178.54 186.694 187.106 198.579C190.654 203.502 187.607 209.49 188.294 214.996C189.954 228.309 201.986 237.616 215 238C212.749 230.924 203.149 227.771 201.292 220.87C200.584 218.241 203.222 215.763 204.749 213.95C207.996 210.096 217.031 197.966 222.834 200.047C229.819 202.552 232.756 211.678 240 214C238.336 200.924 231.103 188.573 216.999 186.444C212.082 185.701 206.641 188.695 202.043 186.505C198.14 184.646 195.359 180.163 192.285 177.22C184.727 169.985 177.03 162.74 170 155C163.938 157.379 161.214 162.578 156 166M112 171C106.855 177.825 99.5143 183.405 93.4599 189.46C86.4518 196.468 80.0566 204.524 71 209C76.5907 216.369 84.1508 221.871 90 229C91.8936 226.357 92.8689 223.182 94.8711 220.615C100.136 213.866 107.29 208.005 113.389 202C118.493 196.975 123.18 191.183 129 187C124.511 180.799 119.107 176.47 114 171L112 171z"
     id="path6" />
</svg>