<?xml version="1.0" encoding="UTF-8" standalone="no"?>
<svg width="500" height="500" viewBox="0 0 500 500" version="1.1">
  <path
     style="fill:#ffffff;stroke:none;opacity:0"
     d="M0 0L0 500L500 500L500 0L0 0z"
     id="path2" />
  <path
     style="fill:#ffffff;stroke:none"
     d="M235 236L233 236C230.371 231.139 226.258 227.628 222.424 223.715C213.569 214.678 203.212 205.736 196.383 195C191.952 188.033 189.959 180.157 189.17 172C188.57 165.803 189.288 159.924 186.801 154.001C182.015 142.601 169.991 136.682 163 127C159.61 125.948 157.636 122.733 155.075 120.3C149.702 115.197 144.202 110.232 138.83 105.13C127.512 94.3802 115.901 83.3759 104.015 73.2585C96.5705 66.9224 88.0569 60.7142 82 53C75.5027 51.0809 70.4538 43.8919 64 41C65.3061 50.0005 76.8541 58.7248 82.9599 64.9854C99.7573 82.2087 115.991 99.9908 133 117C138.847 122.847 144.482 128.823 149.976 135C151.515 136.73 154.667 140.038 151.794 142.133C149.21 144.017 146.276 140.478 144.7 138.871C139.499 133.57 133.71 128.944 128.424 123.729C112.59 108.106 95.7768 93.4771 79.7292 78.0841C73.9933 72.5823 64.8011 61.3373 57 60C55.1931 56.948 53.1453 55.6057 50 54C52.3546 62.6436 60.9586 69.4626 66.7145 76C82.8067 94.277 100.539 111.193 117.374 128.789C123.2 134.878 129.193 140.802 134.909 146.999C136.356 148.568 139.928 151.688 139.257 154.177C138.35 157.541 133.888 154.914 132.428 153.73C125.921 148.449 119.928 141.919 114 136C99.9783 122 85.2879 108.691 71.2855 94.7145C61.2663 84.7135 50.5936 72.7399 38 66C40.2763 75.6011 50.136 83.7794 56.5617 90.9105C72.3944 108.481 88.4033 126.172 105.004 143C110.764 148.839 116.341 154.874 121.84 160.961C123.603 162.913 127.103 165.847 125.343 168.782C123.354 172.098 119.95 168.964 118.112 167.274C112.169 161.811 106.746 155.683 101 150.004C85.2555 134.441 69.1491 119.143 53.0008 104.025C44.3199 95.8975 36.1827 85.6996 25 81C29.3986 94.2615 43.7691 106.004 52.885 116.285C69.1112 134.586 86.0556 152.186 102.615 170.174C112.842 181.283 123.495 195.981 137 203.235C143.932 206.959 151.534 205.447 159 206.17C165.885 206.837 172.067 209.153 178 212.67C187.774 218.463 196.582 228.26 204.576 236.282C209.021 240.742 213.255 246.303 219 249C213.429 258.268 203.729 265.554 196.197 273.25C179.198 290.62 161.845 307.667 144.611 324.803C137.51 331.864 130.396 338.927 123.389 346.081C119.354 350.2 115.058 355.779 109.961 358.559C105.421 361.034 99.905 361.595 95 363.035C81.3592 367.041 67.5634 370.419 54 374.653C46.7951 376.902 37.8576 377.539 34 385.015C27.8309 396.971 36.8847 406.071 44.8032 414L98 467.197C106.387 475.57 116.618 483.919 127.921 475.022C134.443 469.887 135.092 460.559 136.884 453C141.095 435.241 143.781 416.315 149.533 399C152.824 389.095 165.773 380.227 173 373L231 315L249 297.001C251.103 294.91 253.841 291.216 256.996 290.782C261.355 290.181 265.417 297.194 268.054 299.845C277.369 309.208 286.34 319.028 295.001 329.004C327.342 366.257 356.756 405.902 385.427 446C391.345 454.276 398.342 465.54 408 469.769C416.938 473.681 428.385 469.902 435.999 464.899C449.651 455.929 461.844 434.006 449.66 419.001C445.547 413.936 439.949 410.969 434.92 406.986C423.983 398.325 412.664 390.064 401.335 381.92C394.406 376.939 386.699 372.424 381 366L379 367C376.91 362.923 372.611 360.673 368.989 358C362.639 353.314 356.2 348.708 350.155 343.629C332.516 328.81 314.83 314.237 297.83 298.679C289.448 291.007 281.442 279.783 271 275L296 250C298.296 247.705 302.842 241.263 306.576 241.77C310.558 242.311 315.305 249.305 318 252C327.995 261.995 337.882 272.115 348 281.985C353.763 287.608 360.37 295.666 367.999 288.952C386.562 272.618 403.527 254.473 421 237C438.84 219.16 456.854 202.647 466.768 179C471.514 167.68 472.312 156.002 472.745 144C473.538 122.08 472.806 101.006 465.833 80C463.077 71.6955 460.743 58.4795 453.671 52.6991C447.719 47.8334 438.153 46.6239 431 44.3441C410.537 37.8218 388.213 36.4578 367 37.9105C360.662 38.3445 354.292 37.5033 348 38.615C334.075 41.0754 318.994 44.88 307 52.6481C300.972 56.5527 296.263 62.023 291.004 66.8302C277.127 79.5155 263.861 92.932 250.884 106.536C240.371 117.559 227.448 127.546 218.573 140C213.02 147.791 220.636 154.493 226.035 159.961C235.969 170.019 245.999 179.999 256 190C258.754 192.754 265.608 197.43 266.231 201.486C266.698 204.533 260.328 209.077 258.389 211C250.954 218.375 239.53 226.535 235 236z"
     id="path4" />
  <path
     style="fill:#999999;stroke:none"
     d="M281 189C301.572 176.146 318.376 157.625 341 147.785C350.999 143.436 365.827 145.738 363.062 160C361.746 166.785 357.647 172.268 354.05 178C347.542 188.371 340.543 198.266 333.116 208C329.757 212.403 320.563 220.171 320.632 226C320.69 230.913 327.852 235.852 331 239L362 270C370.167 264.247 376.944 256.056 384 249C396.666 236.334 409.363 223.697 421.999 211C429.791 203.17 438.761 194.657 444.252 185C448.092 178.245 450.059 170.461 452 163C458.001 139.935 456.36 111.626 449 89C446.861 82.4241 445.215 72.3571 439.725 67.652C436.593 64.9668 431.822 64.2607 428 62.9992C417.868 59.6552 407.587 57.8895 397 56.831C371.657 54.297 339.503 54.0413 317 67.9869C305.615 75.0426 296.398 86.6016 287 96L251 132C247.903 135.097 239.368 141.006 239.917 145.961C240.416 150.458 247.792 155.644 250.831 158.576C261.005 168.39 271.714 178.353 281 189M53 394C62.4187 409.08 78.4526 421.502 90.9753 434.025C99.1447 442.194 107.204 452.852 117 459C118.889 444.13 123.593 429.675 126.551 415C128.179 406.923 129.014 396.287 132.988 389C136.717 382.163 144.533 376.467 150 371L184 337C213.178 307.822 241.856 278.196 271.025 249.025C294.687 225.361 321.058 201.946 337 172C327.681 173.239 318.314 182.307 311 187.884C289.181 204.524 271.015 225.265 251.545 244.406C221.629 273.816 191.693 303.307 162 333L134 361C129.021 365.979 124.127 372.178 118 375.772C111.192 379.766 101.597 380.878 94 382.884C80.3281 386.496 66.7698 390.814 53 394M270 275L269 277C270.263 276.029 270.392 276.306 270 275M266 279L267 280L266 279z"
     id="path6" />
  <path
     style="fill:#ffffff;stroke:none"
     d="M248 331.425C236.536 332.986 226.673 337.27 218.285 345.428C211.133 352.386 206.273 361.11 198 366.957C184.089 376.787 164.149 382.272 157.966 400C155.483 407.119 157 416.537 157 424C157 434.468 155.176 447.128 159.363 457C169.455 480.798 202.198 491 226 491C230.942 491 236.097 491.407 241 490.7C261.127 487.798 267.559 469.585 279.26 456.019C290.19 443.345 309.129 440.186 316.557 423.985C321.109 414.058 320.542 399.653 319.285 389C318.278 380.46 320.705 371.072 317.095 363C308.56 343.916 282.452 334.165 263 331.95C257.905 331.37 253.131 330.726 248 331.425z"
     id="path8" />
  <path
     style="fill:#cccccc;stroke:none"
     d="M247 342.439C228.792 345.306 221.891 359.952 209.715 371.56C202.651 378.294 193.284 382.236 185.001 387.201C177.657 391.602 169.381 396.713 168.189 406C166.737 417.312 175.051 426.085 184 431.536C200.812 441.777 221.602 446.127 241 442.854C256.685 440.208 261.773 423.496 271.174 413.001C276 407.612 281.824 403.185 288 399.45C295.062 395.179 303.423 391.127 306.713 383C311.287 371.703 305.286 361.631 296 355.36C282.61 346.316 263.278 339.876 247 342.439z"
     id="path10" />
  <path
     style="fill:#ffffff;stroke:none"
     d="M85 403C87.4529 410.215 94.5296 415.863 100 420.955C101.859 422.686 104.785 425.84 107.581 424.168C110.09 422.669 110.709 418.569 111.37 416C112.988 409.72 115.277 401.649 107.907 398.028C101.925 395.089 90.7059 400.802 85 403z"
     id="path12" />
  <path
     style="fill:#ececec;stroke:none"
     d="M308 399C297.526 406.313 286.11 411.35 277.535 421C268.994 430.61 263.935 444.063 251.91 450.334C231.498 460.979 203.227 453.267 184 443.63C178.411 440.829 173.667 436.522 168 434C168 441.546 167.198 449.271 171.283 456C182.065 473.759 213.233 483.044 233 480.424C238.204 479.735 243.21 479.617 248 477.164C261.168 470.424 266.053 453.301 277.09 443.808C290.356 432.396 308.48 428.579 308.985 408C309.062 404.889 309.202 401.865 308 399M53 421C53.5451 422.635 53.3648 422.455 55 423C54.4549 421.365 54.6352 421.545 53 421z"
     id="path14" />
</svg>