<?xml version="1.0" encoding="UTF-8" standalone="no"?>
<svg width="500" height="500" viewBox="0 0 500 500">
  <path
     style="fill:#ffffff;stroke:none;opacity:0"
     d="M0 0L0 500L500 500L500 0L498.5 0L448 0L383 0L258 0L0 0z"
     id="path2" />
  <path
     style="fill:#ffffff;stroke:none"
     d="M361 111L359.5 112.056L358.944 112.361L357 113.389L355 114.139L354 114.444L352 115.25L351 115.778L349 116.778L348 117.222L347 117.778L345 118.778L344 119.25L343 119.833L342 120.361L341 120.944L339 121.944L338 122.361L336 123.25L334 124.25L333 124.833L332 125.389L330 126.583L328.028 127.611L327.083 128.083L325.417 129.222L324 130.639L322.667 132.222L321.333 133.944L320 135.611L319.333 136.389L318 138.056L317.333 138.944L316 140.611L315.306 141.389L313.861 143.083L312.389 145L311.694 146L310.333 147.917L309.694 148.778L308.528 150.361L308 151.139L306.917 152.611L306.306 153.306L305 154.694L304.333 155.417L303 157.083L301.583 159L300.778 160L299.056 162L297.389 164L296.639 165L295.889 166L294.583 167.972L294.028 168.917L292.917 170.583L292.306 171.306L291 172.694L290.333 173.417L289 175.056L287.583 176.778L286.778 177.611L285.056 179.222L283.389 181.028L281.806 183L280.194 185L279.389 186L278.611 187L277.806 188L276.194 190L275.417 191L274.694 192L273.306 194L272.583 195L271 197L270.194 197.972L269.417 198.917L268 200.611L266.667 202.222L266 203.083L264.667 205L263.333 206.917L262 208.611L260.667 210.222L259.306 212.028L258.611 213L257.139 214.972L256.389 215.917L255.694 216.778L255 217.583L253.694 219L253.083 219.694L252.528 220.389L252 221.139L250.917 222.639L250.306 223.389L249 225.056L248.333 225.944L247 227.611L246.333 228.389L245 230.056L244.333 230.944L243 232.611L242.333 233.389L241 235.056L240.333 235.944L239.694 236.778L238.528 238.361L238 239.139L236.917 240.611L236.306 241.306L235.083 242.694L234.528 243.389L234 244.139L232.917 245.611L232.306 246.306L231.667 247L230.333 248.417L229.111 250.028L228.333 251.5L228 253L229.5 253.75L230.056 254.222L231.056 254.889L232 255.611L233 256.306L235 257.611L236 258.194L238 259.389L240 260.611L241 261.167L242 261.75L244 262.778L245 263.222L246 263.778L247 264.25L249 265.389L251 266.667L252 267.306L253 267.889L253.944 268.361L255.5 268.889L257 269L257.694 267.5L258.083 266.972L258.694 266.028L260 264.389L260.667 263.611L261.333 262.778L262 261.944L262.667 261.056L264 259.389L265.389 257.861L266.139 257.139L266.861 256.389L268.278 255L269.472 253.611L270.528 252.139L271.083 251.389L271.694 250.694L272.333 250L273.667 248.583L275 246.944L275.667 246.056L277 244.389L277.667 243.611L279 241.944L279.667 241.056L281 239.417L281.667 238.694L282.917 237.306L283.472 236.611L284 235.861L285.083 234.389L285.694 233.694L287 232.306L287.694 231.583L288.417 230.778L290.083 228.972L292 227L293 226L295 224L295.972 223L296.917 222L298.611 220L300.222 218L301.083 217L302.917 215L303.778 214L305.389 212L307 210L307.806 209.028L309.306 207.222L310.667 205.694L312 204.306L312.667 203.583L314 201.944L314.667 201.056L316 199.389L317.417 197.778L318.222 196.917L319.083 195.972L320.028 195L321.917 193L323.611 191L325.194 189L326 188L327.583 186L328.306 185L329.667 183.083L331 181.389L331.694 180.611L332.417 179.778L334.083 177.972L335.917 176L337.611 174L338.389 173L340.083 171L341.028 170L342 169L344 167L345.917 165L347.611 163L348.361 162L349.111 161L350.333 159L351.139 157L351.444 156L352.194 154L352.611 153L353.389 151L354.194 149L354.611 148L355.333 146L356 144L357.667 139L358.333 137L358.667 136L359.306 134L359.583 133L359.917 131L360.083 129L360.389 127L360.806 125L361.194 123L361.389 122L361.611 121L361.806 120L362.194 118L362.611 116L362.917 114.056L362.972 113.056L363 111L361 111M369 132L368.028 133.5L367.444 135.056L367.056 137L366.944 138L366.611 140L366.389 141L366.194 142L365.806 144L365.611 145L365.222 147L365.083 148L364.917 150L364.583 152L364.306 153L364 154L363.333 156L362.667 158L362.333 159L361.611 161L361.194 162L360.444 164L360.139 165L359.417 167L358.972 168L358.056 170L357.194 172L356.833 173L356.444 174L356.167 175L355.611 176.944L355 179L356.444 178.278L357 177.75L359 176L359.444 177.5L359.667 178.056L360 179.056L360.667 181L361.333 183L361.667 184L362.028 185L362.389 186L362.806 187L363.611 189L364.333 190.944L364.556 191.5L365 193L366.194 192.694L366.583 192.333L368 191L368.583 193L368.778 194L368.917 194.5L369 196L370.417 195.472L370.778 195.139L371.583 194.556L373 193L373.417 194.444L373.75 195.556L374 197L375.389 196.639L376.306 195.667L376.611 194.944L376.694 193.5L376 192L375 192L373 193L372 191L372 190L370.556 190.25L369.444 190.583L368 191L367.75 189.5L367.306 187.944L366.611 186L365.806 184L365.389 183L365.028 182L364.667 181L364.333 180L363.611 178L362.806 176.056L362.5 175.5L362 174L364 174L365 173L365 171L364 170L366 169L367 169L366.972 167.5L366.75 165.944L366.528 165L365.806 163.056L365.5 162.5L365 161L366.75 160.75L367.278 160.722L368 160L368 158L367 157L368.444 156.583L369.556 156.25L371 156L370.556 154.5L370.333 153.944L369.639 152.056L369.167 151.056L368.972 150.5L368 149L369.444 148.583L370.556 148.25L372 148L371.5 146.5L371.194 145.944L370.806 144.944L370 143.056L369.806 142.5L369 141L370.444 140.583L371.556 140.25L373 140L373.25 141.5L373.667 143L374.028 143.944L374.194 144.5L375 146L377 146L378 145L378.5 146.5L378.806 147.056L379.194 148.056L380 149.944L380.194 150.5L381 152L382.472 151.694L383.722 151.889L384.639 152.639L385 154L386.444 153.75L387.556 153.417L389 153L389.278 154.5L389.472 155.056L390.167 156.944L390.722 158.5L391 160L392.444 159.583L393.556 159.25L395 159L395 161L396 162L397.444 161.583L398.556 161.25L400 161L400.083 162.5L400.417 164.056L400.694 165L401.389 167L401.806 168L402.611 170L402.972 171L403.667 173L404.306 174.944L404.583 175.944L404.75 176.5L405 178L403 178L402 179L402.306 180.472L402.111 181.722L401.361 182.639L400 183L400.25 184.444L400.583 185.556L401 187L399.5 187.278L398 187.833L397.056 188.194L396.5 188.5L395 189L395.25 191L395.278 191.556L396 193L394.5 193.083L392.944 193.472L392 193.833L390 194.611L388.056 195.333L387.5 195.556L386 196L386.278 197.667L386.389 198.389L386.639 199.583L387 201L388.5 200.722L389.056 200.528L391 199.806L392 199.389L394 198.667L394.944 198.361L395.944 197.972L396.5 197.806L398 197L397.75 195L397.722 194.444L397 193L398.5 192.75L399.056 192.583L400.056 192.306L401.944 191.667L402.5 191.444L404 191L403.583 189.556L403.25 188.444L403 187L404 187L406 186L406 184L405 183L406 183L408 182L407.583 180.556L407.25 179.444L407 178L409 177L410 177L409.917 175.5L409.528 173.944L408.806 172L408.389 171L407.667 169L407 167L406.333 165L405.972 164L405.611 163L404.806 161.056L404.5 160.5L404 159L402.556 159.25L401.444 159.583L400 160L399 158L399 157L397.528 156.639L396.194 155.667L395.5 154.889L394.944 154.028L394.278 152.5L394 151L392.5 151.25L392 151.389L390.5 151.75L389 152L389 149L387 149.25L386.444 149.278L385 150L384.917 148.5L384.528 146.944L383.806 145.056L383.5 144.5L383 143L381.556 143.417L380.444 143.75L379 144L378.75 142.5L378.333 141L377.972 140.056L377.806 139.5L377 138L375.556 138.25L374.444 138.583L373 139L372.722 137.528L372.111 136.333L371.556 135.972L371.222 135.639L370 136L370.25 134.556L370.583 133.444L371 132L369 132z"
     id="path4" />
  <path
     style="fill:#ffffff; stroke:none;"
     d="M362 168L362 170L363 170L364 168L362 168M360 171L360 175L360.722 174.222L360.889 173L360.722 172.278L360.722 171.778L360 171M311 173L309.917 174.417L308.722 175.667L307.917 176.389L306.083 178.083L304.389 180L303.639 181L302.889 182L301.583 184L300.417 186L299.778 187L298.389 188.917L297.694 189.778L297 190.583L295.611 192L294.861 192.694L293.444 194.222L292.833 195.083L291.639 197L290.639 198.944L290.111 200.5L290 202L288.5 202.278L286.944 202.944L286.028 203.5L284.222 205.083L282.694 207L282 207.972L281.306 208.917L279.806 210.611L279 211.389L277.472 213.083L276.833 214.028L275.528 216L273.917 218L272.972 219L272 220L271 221L269.083 223L267.417 225L266.722 226L266.111 227L265.306 228.944L265.111 229.944L265 232L269 232L269.694 230.5L270.722 228.944L271.417 228L273.083 226L274.917 224L275.778 223L277.361 221L278.139 220L278.861 219L279.639 218L280.389 217L282.083 215L283.917 213L285.611 211L286.389 210L288.056 208L288.944 207L290.611 205.083L292.194 203.389L293 202.611L294.528 200.917L295.167 199.972L296.472 198L297.25 197L298.083 196L299.917 194L300.75 193L301.5 192L302.611 190.028L303.056 189.083L304.083 187.389L304.722 186.611L306.222 184.917L307.083 183.972L309 182L310 181L311.889 179L313.278 177L313.667 176.056L313.972 174.5L314 173L311 173z"
     id="path6" />
  <path
     style="fill:#ffffff;stroke:none"
     d="M378 195L378 200L379.5 199.75L381.056 199.278L381.972 198.889L383.667 197.694L384.667 196.028L384.889 195.056L385 193L383.5 193.25L382.944 193.417L381.944 193.694L380.056 194.333L379.5 194.556L378 195M225 256L222.944 258.056L221.028 260L220.083 261L218.389 262.972L217.639 263.917L216.139 265.611L215.361 266.389L214.611 267.194L213 268.806L212.222 269.611L211.472 270.389L210.833 271.194L209.556 272.806L208.139 274.389L207.361 275.194L206.611 276L205.806 276.806L204.306 278.389L203.722 279.167L203.111 280.528L203 282L201.528 282.361L200.278 283.278L199.722 284.056L199.361 284.528L199 286L200.417 286.333L200.833 286.639L201.667 287.083L202.389 287.639L204.083 288.833L205.028 289.444L207 290.861L207.972 291.639L208.917 292.361L210.611 293.861L211.389 294.639L212.222 295.389L213.083 296.222L214.028 297.083L216 299L217 300L219 302L221 303.917L222.944 305.5L224.5 306.472L226 307L227.083 305.583L228.25 304.333L229 303.611L230.611 301.917L232.194 300L233 299L234.611 297L236.139 295L236.861 294L238.389 292L239.194 291L240.806 289L241.611 288L242.361 287L243.139 286L244.611 284.083L245.972 282.389L246.611 281.611L247.194 280.806L248.444 279.194L249.861 277.611L250.639 276.778L252.111 275.028L252.778 274.056L253.25 273.5L254 272L252.5 271.667L250.944 270.889L249 269.611L248 268.889L246 267.583L245 267.028L243 265.944L241 264.833L240 264.25L239 263.75L237 262.611L236 261.972L235 261.333L233 260.083L232 259.528L230.056 258.444L228.5 257.389L227 256L225 256M195 290L193.944 291.5L193.611 292.056L192.944 293.056L192.333 294L191.667 295L190.333 297L186.333 303L184.333 306L183 308L181.611 310L180.167 312L179.444 313L178.833 314L177.556 316L176.139 318L175.361 319L174.639 320L173.861 321L172.444 323L171.833 324L171.194 325L169.972 327L168.611 329L167.889 330L166.694 331.944L166.111 333.5L166 335L164.583 335.361L163.444 336.333L162.5 338.028L162.194 339.889L162.306 340.667L162.861 341.639L164 342L162.5 342.472L161.944 342.361L160.944 342.333L160 342.167L159 342L157 341.611L156 341.389L154 341.083L152 341L151 341L149 341.083L147 341.417L146 341.694L144 342.306L143 342.611L142 342.861L140.083 343.472L139.222 343.917L138.389 344.417L136.806 345.611L136 346.194L134.472 347.472L133.833 348.222L132.556 349.806L131.833 350.611L130.444 352.222L129.278 354.028L128.833 355L127.944 357L126.944 359L125.833 361L125.25 362L124.778 363L124.222 364L123.75 365L122.611 367L121.972 368L120.583 369.917L119 371.611L118.194 372.389L116.611 373.972L115.778 374.722L113.972 376L112 377.222L110 378.528L108 379.528L107 379.833L105 380.389L104 380.694L102 381.306L101 381.611L100 381.833L99 382.056L98 382.167L96 382.389L95 382.528L93 382.806L91.0278 383.083L90.1111 383.333L89.3333 383.722L88.7222 384.278L88.3333 385.056L88 387L89.5 387.75L91 388.806L91.5 389.25L93 390L92 388L93 388L94.5 388.25L96.0556 388.611L98 389L100 389.389L102 389.861L103 390.139L105 390.611L106 390.806L108 391.194L109 391.389L110 391.611L112 391.917L113 391.972L115 392L116 392L118 392L120 392.083L122 392.389L123 392.611L125 392.917L126 392.972L128 393.028L129 393.083L131 393.361L132 393.528L134 393.611L136 393.583L137 393.611L139 393.611L140 393.556L141 393.528L143 393.417L145 393.194L146 393.056L147 392.944L149 392.611L150 392.389L152 392.083L153 392.028L155 391.917L157 391.528L158 391.167L160 390.361L161 389.944L163 388.944L164 388.361L166 387.25L166.972 386.75L168.778 385.528L170.361 384L171.833 382.389L172.556 381.611L173.722 379.917L174.528 378L174.75 377L174.917 376.056L175 374.5L175 373L177 373L177 368L177 366L177 364L176.917 362L176.583 360L176.306 359L175.611 357L175.167 356L174.222 354.028L173.75 353.083L172.556 351.389L171.833 350.611L170.361 348.944L169.611 348.056L167.917 346.389L166.056 344.833L165.5 344.417L164 343L165.5 343.528L167.056 344.5L169 346.083L170.972 348L171.917 349L173.528 350.944L175 353L176.5 352.889L178.056 352.361L179.917 351.278L180.778 350.583L181.611 349.806L183.222 348.194L184.944 346.611L186.611 345L188.222 343.389L189.083 342.611L191 340.917L192 339.972L194 338L196 336L197 335L198 334.028L198.972 333.083L199.917 332.222L200.778 331.417L202.389 330L204.083 328.583L205.917 326.917L206.778 326L207.611 325.083L209.222 323.389L210.083 322.611L212 320.917L213.972 319.083L214.917 318.222L216.611 316.611L217.389 315.806L219.028 314.25L220.5 313.083L222 312L221.639 310.5L221.278 309.944L220.694 308.944L219.194 307.028L217.611 305.222L216.778 304.389L215.917 303.611L214 301.917L212 300.083L210.083 298.389L209.222 297.639L208.389 296.861L206.778 295.444L205 294.167L204.083 293.556L202.389 292.167L201.611 291.472L199.917 290.5L198.972 290.25L198.056 290.083L196.5 290L195 290M87 395L86.2222 396.5L85.6944 397.056L84.8889 398.056L83.0833 400L81.3889 402L80.6111 403L79.0278 405L78.2778 406L77 408L76.4167 409L75.1389 411L74.4444 412L73.2778 414L72.8333 415L71.9444 417L70.9444 419L70.3889 420L69.4167 422L69.0278 423L68.3333 425L68 426L67.4167 428L67.0833 430L67.0278 431L67 433L67 434L67 436L67 438L67 439L67 440L67.0833 442L67.4167 444L68.0278 445.972L68.4167 446.917L68.8889 447.778L69.4167 448.611L70.6111 450.222L71.8333 451.944L72.4722 452.75L73.25 453.528L75.0278 454.806L76 455.389L78 456.583L80 457.5L81 457.75L83 457.972L84 458L85 458L87 458L90 458L92 458L93 458L95 457.917L96 457.75L97 457.5L99 456.528L100 455.861L101.972 454.583L103.694 453.389L104.389 452.694L105 451.889L105.583 450.972L106.861 449L108.139 447L108.722 446L109.528 444L109.917 442L109.972 441L110 440L110 438L110 437L110 434L110 432L109.917 430L109.778 429L109.583 428L109.306 427L108.611 425L107.806 423L107.361 422L106.944 421L106.472 420L105.528 418L105.056 417L104.167 415L103.722 414L102.556 412L101.222 410L100.583 409L100 408L98.7222 406L97.1944 404L96.3889 403L95.6111 402L93.9167 400L92.9722 399L91.0556 397.056L89 395L87 395z"
     id="path8" />
  <path
     style="fill:#ffffff; stroke:none;"
     d="M87 402L85.5833 403.5L85.1667 404.056L83.6389 406L82.8611 407L81.3889 409L80.0278 411L78.8056 413L77.6111 415L76.3889 417L75.8333 418L75.2778 419L74.8333 420L74.3889 421L74.0278 422L73.6667 423L73 425L72.3333 427L72 428L71.4167 430L71.0833 432L71.0278 433L71 435L71 436L71.0278 438L71.0833 439L71.4167 441L72.0278 443L72.4167 444L73.5 446L75.0833 447.972L76.0278 448.917L78 450.528L79 451.139L80 451.722L81 452.167L83 452.972L85 453.583L87 453.917L88 453.944L89 453.917L91 453.583L93 452.972L95 452.167L96 451.722L97 451.139L98 450.528L99.9722 448.917L100.917 447.972L102.5 446L103.583 444L103.972 443L104.583 441L104.917 439L104.972 438L105 436L105 435L104.972 433L104.917 432L104.583 430L104 428L103.667 427L103 425L102.333 423L101.972 422L101.611 421L101.167 420L100.722 419L100.167 418L99.6111 417L98.3889 415L97.1944 413L95.9722 411L94.6111 409L93.1389 407L92.3611 406L90.8333 404.056L90.4167 403.5L89 402L87 402z"
     id="path10" />
</svg>