<?xml version="1.0" encoding="UTF-8" standalone="no"?>
<svg width="500" height="500" viewBox="0 0 500 500" version="1.1">
  <path
     style="fill:#ffffff;stroke:none;opacity:0"
     d="M0 0L0 500L500 500L500 0L0 0z"
     id="path2" />
  <path
     style="fill:#ffffff;stroke:none"
     d="M184 116L135 116C122.879 116 109.886 114.698 98 117.525C85.4539 120.508 74.6333 128.095 66.0139 137.439C48.3389 156.6 51 181.97 51 206L51 348C51 360.111 49.748 373.113 52.5285 385C55.915 399.476 66.6593 413.735 79.0895 421.691C97.3715 433.393 117.219 432 138 432L227 432C241.22 432 266.757 436.794 266.996 416C267.023 413.705 267.173 411.203 266.411 409.001C261.077 393.579 236.42 398 224 398L141 398C129.401 398 113.707 400.74 103 395.597C84.2034 386.569 84 368.99 84 351L84 246L240 246C240 256.159 237.687 269.933 243.483 278.907C250.551 289.849 267.853 287.662 272.91 275.999C276.435 267.872 274 254.768 274 246L429 246C429 257.92 426.328 273.672 430.525 284.999C433.759 293.728 444.789 297.494 452.985 293.467C466.981 286.591 462 263.954 462 251L462 198C462 187.979 463.326 176.892 461.674 167C459.492 153.932 451.604 140.965 441.999 132.093C424.408 115.845 403.405 116 381 116L329 116C329 96.7932 331.038 77.62 316.334 62.8079C298.742 45.0865 267.684 51 245 51C235.122 51 224.689 50.0244 215 52.3009C207.278 54.1154 199.641 59.412 194.428 65.2901C181.76 79.5762 184 98.3147 184 116z"
     id="path4" />
  <path
     style="fill:#ececec;stroke:none;fill-opacity:1;opacity:1"
     d="M217 116L296 116C296 107.917 298.647 94.4908 292.772 88.1088C288.248 83.1951 282.085 84 276 84L237 84C231.244 84 224.828 83.135 220.433 87.6844C214.433 93.8944 217 108.104 217 116M84 212L429 212C429 192.67 433.871 166.694 414.999 154.304C405.915 148.341 396.384 149 386 149L341 149L170 149L128 149C117.723 149 108.148 148.192 99.0008 153.775C79.027 165.967 84 192.163 84 212z"
     id="path6" />
  <path
     style="fill:#ffffff;stroke:none"
     d="M390 363C384.241 361.298 375.799 361.05 370 362.839C366.435 363.938 362.85 366.818 359 366.677C354.41 366.51 350.319 362.425 346 361.058C338.165 358.577 324.514 358.6 317 362.046C291.05 373.946 282.388 413.902 303.104 434.907C314.292 446.25 335.33 445.016 350 443.285C361.551 441.923 373.467 443.376 385 441.561C401.015 439.04 419.293 429.437 431.576 419.024C443.877 408.595 460.209 398.434 454.791 380C452.39 371.83 448.19 364.657 444.895 356.91C433.963 331.212 418.767 301.235 393.83 286.323C386.255 281.793 377.341 279.365 369 276.671C365.477 275.532 360.738 273.393 357 273.734C352.898 274.108 349.454 277.587 346.978 280.58C340.723 288.14 336.296 300.319 340.144 309.96C344.751 321.5 355.869 318.004 365 316.898C368.042 316.53 370.973 317.627 374 317.66C376.79 317.691 379.263 317.021 381.91 318.293C389.387 321.886 388.842 328.963 389.015 336C389.235 345.008 390 353.938 390 363z"
     id="path8" />
  <path
     style="fill:#ececec;stroke:none"
     d="M345 385C346.834 382.015 348.741 379.275 350 376C341.312 371.774 331.958 368.828 322.285 372.471C301.832 380.172 297.484 410.201 310.877 425.674C315.837 431.405 322.829 432.419 330 432.91C337.772 433.443 345.293 432.203 353 432.015C363.509 431.757 374.726 432.446 385 430C378.448 427.985 370.043 430.666 363 429.384C360.424 428.915 356.469 428.434 355.216 425.721C353.915 422.906 356.341 418.606 359.188 417.788C361.649 417.08 364.55 418.523 367 418.816C371.923 419.403 377.217 419.135 382 417.841C386.517 416.619 391.189 414.698 394.961 411.895C397.474 410.027 399.849 406.335 403.039 405.662C406.344 404.965 411.679 408.309 410.289 412.054C408.442 417.027 402.284 420.081 399 424C411.687 420.795 424.58 410.682 434 401.91C437.473 398.677 442.498 394.814 443.681 390C445.774 381.486 438.292 370.441 434.886 363C423.963 339.142 411.773 312.49 389 297.409C382.468 293.083 375.28 290.968 368 288.41C365.07 287.381 361.344 285.553 358.213 286.782C355.146 287.987 353.295 292.221 351.985 295C350.979 297.132 350.06 299.581 350.242 301.985C350.441 304.628 352.16 307.086 355.019 307.137C358.291 307.196 360.752 304.189 364 303.908C366.808 303.665 369.283 305.343 372 305.718C378.43 306.606 381.767 304.488 388.003 308.129C400.091 315.187 399.711 324.593 400.015 337C400.208 344.872 400.489 353.094 401.054 360.961C401.403 365.823 406.615 372.194 404.762 376.941C403.388 380.462 399.337 381.262 396.17 379.921C386.619 375.878 377.07 369.854 367 377.419C362.763 380.602 359.68 386.42 354.911 388.739C351.129 390.579 348.028 386.764 345 385M397 424L398 425L397 424M395 425L391 427C393.14 427.41 393.963 426.968 396 426L395 425M387 428C388.248 428.685 388.548 428.749 390 429C388.752 428.315 388.451 428.251 387 428z"
     id="path10" />
</svg>