<?xml version="1.0" encoding="UTF-8" standalone="no"?>
<svg width="500" height="500" viewBox="0 0 500 500" version="1.1">
  <path
     style="fill:#ffffff;stroke:none;opacity:0"
     d="M0 0L0 500L500 500L500 0L0 0z"
     id="path2" />
  <path
     style="fill:#ffffff;stroke:none"
     d="M184 116L130 116C109.15 116 88.8512 115.874 72.439 131.014C63.0951 139.633 55.5079 150.454 52.5247 163C49.0527 177.601 51 194.09 51 209L51 351C51 362.167 49.9638 374.036 52.5285 385C55.315 396.912 63.2448 408.582 72.3997 416.492C89.2667 431.064 106.952 431 128 431L170 431C248.92 431 328.107 432.918 407 430.985C431.58 430.383 453.732 408.83 460.211 386C463.684 373.766 462 359.575 462 347L462 277L462 208C462 194.793 463.85 180.029 461.674 167C457.871 144.223 439.519 125.277 418 118.359C407.188 114.883 395.19 116 384 116L329 116C329 96.663 331.143 77.7254 316.334 62.8079C298.742 45.0865 267.684 51 245 51C235.122 51 224.689 50.0244 215 52.3009C207.278 54.1154 199.641 59.412 194.428 65.2901C181.76 79.5762 184 98.3147 184 116z"
     id="path4" />
  <path
     style="fill:#000000;stroke:none"
     d="M217 116L296 116C296 107.57 298.557 93.6837 291.853 87.2284C287.38 82.9212 280.693 84 275 84L237 84C231.244 84 224.828 83.135 220.433 87.6844C214.433 93.8944 217 108.104 217 116M84 197L429 197C429 189.918 430.013 181.959 428.621 175C426.249 163.144 417.294 153.843 406 150.104C397.586 147.319 386.78 149 378 149L323 149L174 149L130 149C122.662 149 114.046 147.772 107 150.104C95.8357 153.8 86.4109 163.121 84.3287 175C83.0949 182.039 84 189.865 84 197M84 231L84 341C84 356.416 80.5991 375.202 91.6806 387.711C101.214 398.472 112.821 398 126 398L165 398L352 398L387 398C400.179 398 411.786 398.472 421.319 387.711C432.401 375.202 429 356.416 429 341L429 231L274 231C274 239.515 276.325 252.099 272.91 260C267.527 272.456 250.883 274.829 243.483 262.96C237.912 254.025 240 241.041 240 231L84 231z"
     id="path6" />
  <path
     style="fill:#ffffff;stroke:none"
     d="M313 277.424C309.925 277.829 305.389 277.541 304.318 281.148C302.599 286.939 304 294.979 304 301C304 313.374 303.379 325.719 303.05 338.09C302.911 343.336 301.19 353.169 304.028 357.769C306.425 361.653 314.186 361.304 318.165 360.565C326.71 358.978 324 346.396 324 340C324 326.002 323.86 311.997 324.004 298C324.057 292.868 326.073 284.917 323.552 280.228C321.502 276.417 316.622 276.947 313 277.424M332.148 277.992C326.452 279.999 329 295.133 329 300L329 342C329 346.503 327.429 354.787 330.028 358.682C332.386 362.217 342.537 361.83 346.1 360.316C352.6 357.555 349.857 342.691 349.859 337C349.863 323.535 349.64 310.04 349.861 296.576C349.932 292.263 351.576 283.157 348.972 279.514C346.37 275.873 335.894 276.673 332.148 277.992M162.083 281.078C156.848 284.366 159.188 297.024 159.142 302.424C159.024 316.141 159.265 329.859 159.154 343.576C159.116 348.346 157.569 356.332 159.604 360.722C161.62 365.07 173.918 364.832 177.486 362.665C182.152 359.831 180 345.685 180 341L180 301C180 295.855 181.483 287.926 179.397 283.148C177.456 278.704 165.746 278.777 162.083 281.078M189.93 280.626C182.15 282.856 185 296.779 185 303C185 316.979 185.411 331.028 184.965 345C184.816 349.636 182.904 357.602 185.942 361.566C188.975 365.525 197.781 363.986 201.887 362.697C208.052 360.761 205.497 345.15 205.43 340.004C205.252 326.375 206 312.651 206 299C206 294.704 207.447 287.048 204.972 283.317C202.61 279.755 193.68 279.551 189.93 280.626M216.318 306.028C213.977 307.59 214.091 310.507 213.991 313C213.781 318.225 210.741 329.64 217.144 332.397C221.954 334.467 229.832 333 235 333L276 333C280.934 333 290.435 334.806 294.682 331.972C298.875 329.174 297.611 315.553 297.177 311.015C296.98 308.967 296.709 306.773 294.682 305.742C290.168 303.446 281.961 305 277 305L235 305C230.066 305 220.565 303.194 216.318 306.028z"
     id="path8" />
</svg>