<svg id="Layer_1" xmlns="http://www.w3.org/2000/svg" version="1.1" viewBox="0 0 48 48">
  <path d="M29.7,9.6c-.8,0-1.4-.6-1.4-1.4s.6-1.4,1.4-1.4,1.4.6,1.4,1.4-.6,1.4-1.4,1.4h0ZM18.3,9.6c-.8,0-1.4-.6-1.4-1.4s.6-1.4,1.4-1.4,1.4.6,1.4,1.4-.6,1.4-1.4,1.4h0ZM30.6,4l.5-.8.5-.8,1.2-1.7c.1-.2,0-.5-.1-.6-.2-.1-.5,0-.7.1l-1.8,2.6-.5.8c-1.7-.7-3.6-1-5.7-1s-4,.4-5.7,1l-.5-.8-.5-.8-1.3-1.9c-.1-.2-.4-.3-.7-.1-.2.1-.3.4-.1.6l1.2,1.7.5.8.5.8c-4.1,1.8-6.8,5.3-6.8,9.3h26.7c0-4-2.7-7.5-6.8-9.3ZM10.8,15.2h-.2v20.4c0,1.6,1.4,2.9,3,2.9h2.2c0,.2-.1.5-.1.8v5.9c0,1.5,1.3,2.8,2.9,2.8s2.9-1.2,2.9-2.8v-5.9c0-.3,0-.5-.1-.8h5.3c0,.2-.1.5-.1.8v5.9c0,1.5,1.3,2.8,2.9,2.8s2.9-1.2,2.9-2.8v-5.9c0-.3,0-.5-.1-.8h2.2c1.7,0,3-1.3,3-2.9V15.2H10.8ZM5.9,15.2c-1.6,0-2.9,1.2-2.9,2.8v11.9c0,1.5,1.3,2.8,2.9,2.8s2.9-1.2,2.9-2.8v-11.9c0-1.5-1.3-2.8-2.9-2.8ZM42.1,15.2c-1.6,0-2.9,1.2-2.9,2.8v11.9c0,1.5,1.3,2.8,2.9,2.8s2.9-1.2,2.9-2.8v-11.9c0-1.5-1.3-2.8-2.9-2.8Z"/>
</svg>