<svg xmlns="http://www.w3.org/2000/svg" viewBox="0 0 59.04 59.04">
    <path transform="matrix(0.0576 0 0 0.0576 7.41389384110818 7.40267984033119)" fill="#000000" d="M704.65 63.45C620.05 -21.15 483.15 -21.15 398.65 63.45C334.336 127.548 340.898 118.442 340.472 118.944C334.801 125.612 387.689 173.809 391.682 169.944C392.404 169.245 385.772 178.351 449.65 114.45C503.45 60.65 594.25 54.95 653.65 114.45C713.15 173.95 707.45 264.65 653.65 318.45C589.957 382.082 596.589 372.976 595.682 373.944C590.371 379.612 641.988 429.378 647.098 425.044C648.027 424.256 641.29 433.362 704.75 369.55C789.15 284.95 787.909 146.355 704.65 63.45ZM318.55 653.65C264.75 707.45 173.95 713.15 114.55 653.65C55.05 594.15 60.75 503.45 114.55 449.65C177.929 386.538 175.463 385.097 176.684 383.609C184.555 374.021 133.806 324.673 125.742 332.509C125.908 333.517 127.191 334.958 63.45 398.55C-21.15 483.15 -21.15 620.05 63.45 704.55C148.05 789.05 284.95 789.15 369.45 704.55C432.643 641.438 430.177 639.997 431.584 638.509C442.308 627.168 389.492 580.245 380.584 587.509C379.426 588.453 381.925 589.928 318.55 653.65ZM139.642 73.8979C138.139 72.4096 136.107 71.5739 133.992 71.5739C131.877 71.5739 129.845 72.4096 128.342 73.8979L78.7156 122.417C77.2273 123.92 76.3916 125.952 76.3916 128.067C76.3916 130.182 77.2273 132.214 78.7156 133.717L633.116 688.117C636.216 691.217 641.316 691.217 644.416 688.117L694.042 639.598C697.142 636.498 697.142 631.398 694.042 628.298Z"/>
</svg>
