<svg xmlns="http://www.w3.org/2000/svg" fill="#000000" viewBox="0 0 24 24">
  <path d="M22.296 6.31a.75.75 0 0 1 .393.985L22 7l.69.295-.001.002-.001.003-.004.007-.01.024-.039.084a13.849 13.849 0 0 1-.727 1.321 15.05 15.05 0 0 1-1.846 2.394l.968.968a.75.75 0 1 1-1.06 1.061l-1-1a11.548 11.548 0 0 1-2.275 1.497l.934 1.435a.75.75 0 0 1-1.258.818l-1.089-1.674c-.78.255-1.623.428-2.532.49V16.5a.75.75 0 1 1-1.5 0v-1.775a10.41 10.41 0 0 1-2.46-.467L7.716 15.91a.75.75 0 0 1-1.257-.818l.912-1.402a11.503 11.503 0 0 1-2.292-1.49l-.961.96a.75.75 0 1 1-1.061-1.06l.924-.924A15.03 15.03 0 0 1 1.514 7.72a9.555 9.555 0 0 1-.187-.389l-.011-.024-.004-.007v-.003H1.31c0-.001 0-.002.689-.297l-.689.296a.75.75 0 0 1 1.378-.592l.001.002.006.013.029.063a12.382 12.382 0 0 0 .65 1.177 13.27 13.27 0 0 0 2.18 2.662c.867.805 1.928 1.546 3.197 2.035A8.969 8.969 0 0 0 12 13.25a8.964 8.964 0 0 0 3.313-.62c1.26-.496 2.315-1.242 3.174-2.048a13.303 13.303 0 0 0 2.789-3.8 4.69 4.69 0 0 0 .028-.063l.006-.013v-.001m.986-.394a.75.75 0 0 0-.985.394l.985-.394Zm-19.607.393Z"/>
</svg>
