<svg xmlns="http://www.w3.org/2000/svg" viewBox="0 -15 128 160">
    <path d="M82.035,55.193a44.354,44.354,0,0,0,26.2-40.456v-.981h4.734a5.645,5.645,0,0,0,5.638-5.64V7.639A5.645,5.645,0,0,0,112.966,2H15.035A5.646,5.646,0,0,0,9.4,7.639v.477a5.646,5.646,0,0,0,5.64,5.64h4.556v.981A44.34,44.34,0,0,0,46.073,55.31a10.222,10.222,0,0,1,6.4,8.917c0,.128,0,.256,0,.383a10.23,10.23,0,0,1-6.368,8.909,44.359,44.359,0,0,0-26.337,40.53v1h-4.9a5.475,5.475,0,1,0,0,10.95h98.258a5.475,5.475,0,0,0,0-10.95h-4.72v-1A44.372,44.372,0,0,0,82.048,73.526a9.912,9.912,0,0,1-6-7.578,14.077,14.077,0,0,1-.137-2A9.9,9.9,0,0,1,82.035,55.193ZM11.4,8.116V7.639A3.643,3.643,0,0,1,15.035,4h97.931A3.642,3.642,0,0,1,116.6,7.639v.477a3.643,3.643,0,0,1-3.638,3.64H15.035A3.644,3.644,0,0,1,11.4,8.116ZM116.6,120.525A3.479,3.479,0,0,1,113.129,124H14.871a3.475,3.475,0,1,1,0-6.95h98.258A3.479,3.479,0,0,1,116.6,120.525ZM73.91,63.931a15.907,15.907,0,0,0,.156,2.294,11.9,11.9,0,0,0,7.171,9.129,42.372,42.372,0,0,1,25.172,38.7v1H21.768v-1a42.356,42.356,0,0,1,25.148-38.7A12.23,12.23,0,0,0,54.473,64.64c0-.148,0-.3,0-.443A12.223,12.223,0,0,0,46.878,53.48,42.342,42.342,0,0,1,21.591,14.737v-.981h84.641v.981A42.349,42.349,0,0,1,81.219,53.366,11.9,11.9,0,0,0,73.91,63.931Z"/>
    <path d="M65.1,76.059a1,1,0,0,0-.937-.675h-.009a1,1,0,0,0-.94.659,22.871,22.871,0,0,1-12.25,12.946A32.248,32.248,0,0,0,34.591,105.31a3.027,3.027,0,0,0,.218,2.9,2.975,2.975,0,0,0,2.509,1.364H90.832a2.977,2.977,0,0,0,2.511-1.365,3.031,3.031,0,0,0,.215-2.9A32.335,32.335,0,0,0,77.17,88.993,22.213,22.213,0,0,1,65.1,76.059Zm26.635,30.068a1.02,1.02,0,0,1-.07.991.97.97,0,0,1-.831.452H37.318a.971.971,0,0,1-.831-.451,1.022,1.022,0,0,1-.071-.991A30.251,30.251,0,0,1,51.773,90.817,25.051,25.051,0,0,0,64.132,78.991,24.424,24.424,0,0,0,76.359,90.822,30.32,30.32,0,0,1,91.733,106.127Z"/>
    <path d="M93.36,29.54a3.026,3.026,0,0,0-.213-2.9,2.976,2.976,0,0,0-2.512-1.367H37.174a2.974,2.974,0,0,0-2.512,1.367,3.024,3.024,0,0,0-.211,2.9A32.291,32.291,0,0,0,50.9,45.826a22.873,22.873,0,0,1,12.28,12.883,1,1,0,0,0,.938.656h.008a1,1,0,0,0,.936-.67A22.446,22.446,0,0,1,77.128,45.739,32.252,32.252,0,0,0,93.36,29.54ZM76.312,43.912A24.608,24.608,0,0,0,64.1,55.78,25.055,25.055,0,0,0,51.7,44,30.3,30.3,0,0,1,36.273,28.719a1.022,1.022,0,0,1,.069-.992.975.975,0,0,1,.832-.451H90.635a.974.974,0,0,1,.832.452,1.021,1.021,0,0,1,.07.99A30.251,30.251,0,0,1,76.312,43.912Z"/>
    <path d="M64,66.623a1,1,0,0,0,1-1V62.214a1,1,0,0,0-2,0v3.409A1,1,0,0,0,64,66.623Z"/>
    <path d="M63,72.631a1,1,0,0,0,2,0v-3.45a1,1,0,0,0-2,0Z"/>
</svg>
