<?xml version="1.0" encoding="utf-8"?>
<svg fill="#000000" xmlns="http://www.w3.org/2000/svg" viewBox="0 0 235.319 235.319">
  <path d="M 206.293 16.659 C 209.107 15.996 209.271 8.162 207.998 2.448 C 207.536 0.373 28.237 -0.289 27.857 1.913 C 27.015 6.772 26.215 15.997 29.028 16.66 C 30.952 50.986 48.781 82.446 77.557 101.724 L 89.586 109.782 L 77.557 117.842 C 48.78 137.118 30.951 168.579 29.028 202.905 C 26.215 203.567 24.117 206.089 24.117 209.104 L 24.117 228.399 C 24.117 231.918 26.972 234.773 30.491 234.773 L 204.829 234.773 C 208.349 234.773 211.202 231.918 211.202 228.399 L 211.202 209.104 C 211.202 206.089 209.107 203.567 206.293 202.905 C 204.368 168.579 186.539 137.119 157.762 117.842 L 145.733 109.782 L 157.762 101.724 C 186.539 82.446 204.368 50.985 206.293 16.659 Z M 130.735 104.487 C 128.968 105.67 127.909 107.656 127.909 109.782 C 127.909 111.908 128.968 113.895 130.735 115.079 L 150.669 128.433 C 175.856 145.305 197.432 178.611 195.651 221.427 L 39.668 220.357 C 37.887 175.942 59.464 145.306 84.651 128.433 L 104.585 115.079 C 106.352 113.895 107.412 111.908 107.412 109.782 C 107.412 107.656 106.352 105.67 104.585 104.487 L 84.651 91.133 C 59.464 74.26 43.763 46.83 41.805 16.835 L 193.514 16.835 C 191.556 46.831 175.856 74.26 150.669 91.133 L 130.735 104.487 Z" style="fill-rule: nonzero; transform-origin: 117.661px 118.343px 0px;"/>
  <path d="M 136.914 63 L 99.547 63 C 96.578 63 93.915 64.833 92.855 67.606 C 91.794 70.381 92.556 73.523 94.77 75.502 L 113.453 92.219 C 114.813 93.435 116.521 94.043 118.229 94.043 C 119.936 94.043 121.646 93.435 123.005 92.219 L 141.687 75.502 C 143.901 73.522 144.663 70.38 143.603 67.606 C 142.546 64.833 139.883 63 136.914 63 Z" style=""/>
  <path d="M 116.302 148.524 L 99.508 159.142 C 84.823 168.824 76.01 185.076 76.01 202.473 L 160.447 202.473 C 160.447 185.076 151.634 168.824 136.95 159.142 L 120.155 148.524 C 118.97 147.825 117.489 147.825 116.302 148.524 Z" style=""/>
</svg>