<?xml version="1.0" encoding="utf-8"?>
<svg xmlns="http://www.w3.org/2000/svg" viewBox="0 0 500 500">
  <path d="M 141.16 274.839 C 141.686 269.464 145.88 263.944 152.742 262.093 C 159.623 260.241 165.996 262.945 169.137 267.357 C 175.237 275.872 188.273 274.602 192.611 265.051 C 194.627 260.622 194.118 255.466 191.287 251.507 C 181.3 237.529 163.109 231.12 145.698 235.785 C 128.269 240.452 115.725 255.104 114.054 272.206 C 113.038 282.645 123.695 290.252 133.244 285.912 C 137.674 283.896 140.687 279.685 141.16 274.839 Z M 246.388 246.643 C 246.913 241.269 251.109 235.749 257.971 233.898 C 264.851 232.045 271.223 234.752 274.364 239.145 C 280.646 247.532 293.663 245.953 297.785 236.312 C 299.6 232.045 299.128 227.144 296.514 223.313 C 286.529 209.333 268.337 202.925 250.926 207.592 C 233.497 212.256 220.951 226.89 219.282 244.01 C 218.265 254.448 228.922 262.056 238.472 257.718 C 242.902 255.703 245.915 251.49 246.388 246.643 Z M 271.787 326.816 L 279.919 315.887 C 288.308 322.15 286.765 335.167 277.143 339.306 C 272.766 341.176 267.72 340.633 263.853 337.872 L 263.67 337.764 C 260.894 336.184 257.935 334.967 254.865 334.133 C 248.311 332.354 237.981 331.174 224.256 334.859 C 210.531 338.525 202.198 344.716 197.386 349.528 C 195.136 351.778 193.174 354.321 191.577 357.08 L 191.485 357.262 C 187.237 366.849 174.22 368.246 168.03 359.787 C 165.161 355.846 164.616 350.691 166.577 346.243 L 179.086 351.652 L 166.577 346.243 L 166.596 346.225 L 166.596 346.186 L 166.649 346.115 L 166.704 345.97 L 166.904 345.552 L 167.485 344.389 C 167.975 343.464 168.665 342.248 169.572 340.831 C 171.388 338 174.148 334.296 178.087 330.339 C 186.003 322.368 198.493 313.563 217.212 308.552 C 235.929 303.522 251.162 304.922 262.001 307.863 C 267.393 309.314 271.623 311.13 274.618 312.691 C 276.217 313.509 277.778 314.434 279.285 315.432 L 279.647 315.704 L 279.811 315.795 L 279.865 315.851 L 279.884 315.851 L 279.919 315.887 L 271.804 326.816 L 271.787 326.816 Z" style=""/>
  <path d="M 220.271 149.724 C 235.367 141.064 282.088 121.814 291.945 124.937 C 295.45 126.044 305.439 128.083 311.039 138.185 C 329.091 170.749 364.288 322.668 343.025 350.427 C 329.863 379.003 307.37 405.936 290.286 420.515 L 289.905 420.843 C 285.367 424.727 280.883 428.558 275.018 431.917 C 268.936 435.384 261.873 438.089 251.98 440.866 C 242.103 443.627 234.678 444.987 227.687 445.151 C 220.97 445.315 215.215 444.334 209.423 443.336 L 208.916 443.264 C 166.777 436.11 99.766 412.145 79.705 333.878 L 64.164 273.24 C 60.351 258.297 57.192 246.008 55.739 235.913 C 54.251 225.473 54.269 215.616 58.354 206.157 C 60.75 200.602 64.11 195.519 68.268 191.142 C 75.42 183.608 84.498 179.959 94.555 177.671 C 104.177 175.456 116.36 174.149 131.048 172.588 L 131.864 172.497 C 141.305 171.48 148.585 170.681 154.612 169.956 C 154.612 169.956 189.422 167.422 220.271 149.724 Z M 269.88 156.811 C 262.2 159.353 252.468 163.89 238.053 170.644 L 237.091 171.098 C 217.121 180.449 205.919 185.695 194.173 189.435 C 190.088 190.707 185.949 191.868 181.791 192.886 C 169.809 195.791 157.608 197.115 135.841 199.457 L 134.769 199.566 C 119.065 201.254 108.48 202.416 100.636 204.214 C 93.049 205.939 89.907 207.9 88.002 209.896 C 86.041 211.965 84.48 214.363 83.354 216.977 C 82.137 219.774 81.52 223.822 82.7 232.045 C 83.898 240.488 86.676 251.345 90.743 267.249 L 106.084 327.107 C 122.097 389.561 175.038 409.893 213.49 416.431 C 219.807 417.501 223.149 418.027 227.033 417.919 C 230.846 417.828 235.858 417.102 244.645 414.652 C 253.412 412.182 258.114 410.202 261.511 408.26 C 264.961 406.281 267.647 404.049 272.602 399.817 C 302.922 373.947 339.27 328.359 323.202 265.651 L 307.861 205.812 C 303.776 189.89 300.963 179.051 298.003 171.135 C 295.079 163.366 292.628 160.314 290.431 158.663 C 288.29 157.047 285.874 155.831 283.297 155.105 C 280.883 154.414 277.323 154.324 269.861 156.811 L 269.88 156.811 Z" style=""/>
  <path d="M 430.041 190.08 L 414.344 251.251 C 406.365 282.346 398.797 298.338 386.001 316.895 C 379.602 322.807 364.343 320.422 368.708 304.983 C 374.342 275.889 396.17 204.971 398.079 194.409 C 407.064 144.704 399.785 140.741 367.636 128.277 C 367.636 128.277 310.898 118 303.329 115.829 C 289.26 111.794 271.133 103.146 260.671 101.156 C 239.718 97.17 233.425 92.803 222.27 99.117 C 206.863 107.837 203.236 138.622 197.385 146.036 C 193.712 150.689 178.232 154.537 175.133 143.882 L 181.199 120.375 C 189.362 88.481 193.463 72.542 204.131 64.531 C 207.71 61.837 211.738 59.854 215.967 58.648 C 228.659 55.049 243.076 61.8 271.909 75.289 C 293.245 85.31 297.881 85.645 309.011 89.19 C 312.91 90.397 329.835 95.232 333.768 96.177 C 345.124 98.943 350.258 98.284 373.044 103.622 C 398.686 109.629 407.556 112.289 418.926 119.477 C 424.125 122.764 432.461 127.852 434.762 140.771 C 437.266 154.832 438.203 158.186 430.041 190.08 Z" style=""/>
</svg>