<?xml version="1.0" encoding="utf-8"?>
<svg xmlns="http://www.w3.org/2000/svg" viewBox="0 0 500 500">
  <path d="M 448.703 191.173 L 429.644 259.771 C 419.948 294.642 401.201 319.173 379.396 336.441 C 384.473 312.64 384.931 286.132 378.107 257.086 L 361.608 186.969 L 358.756 174.819 C 362.711 173.091 367.121 172.758 371.241 173.903 C 379.064 176.004 383.703 182.35 384.183 188.509 C 385.077 200.472 398.622 206.694 408.546 199.703 C 413.165 196.457 415.725 191.047 415.308 185.491 C 413.831 165.892 399.787 149.1 379.958 143.754 C 370.283 141.133 360.004 141.487 350.413 144.795 L 350.081 143.878 C 345.691 131.478 339.156 118.308 326.465 108.654 C 319.536 103.348 311.651 99.394 303.205 96.961 C 287.515 92.487 272.806 95.379 260.217 99.54 C 248.525 103.39 234.812 109.735 219.812 116.706 L 218.293 117.412 C 193.408 128.961 183.441 133.496 173.287 136.723 C 170.209 137.7 167.088 138.572 163.945 139.366 L 171.311 113.001 C 181.236 77.236 186.21 59.363 198.361 50.375 C 202.438 47.358 206.995 45.131 211.78 43.78 C 226.094 39.742 242.095 47.316 274.116 62.442 C 297.794 73.678 309.674 79.276 322.055 83.249 C 326.403 84.601 330.751 85.85 335.142 86.91 C 347.812 90.01 360.816 91.405 386.846 94.215 C 422.007 98 439.568 99.894 449.742 110.817 C 453.135 114.501 455.881 118.786 457.795 123.489 C 463.579 137.534 458.626 155.406 448.703 191.173 Z" style=""/>
  <path fill-rule="evenodd" d="M 126.99 278.051 C 127.719 271.891 132.67 265.566 140.577 263.444 C 148.505 261.321 155.745 264.422 159.241 269.477 C 166.023 279.257 181.004 277.801 186.186 266.856 C 188.619 261.779 188.162 255.849 184.999 251.314 C 173.91 235.294 153.206 227.95 133.15 233.296 C 113.051 238.642 98.32 255.434 95.99 275.034 C 94.574 286.998 106.621 295.736 117.649 290.764 C 122.768 288.454 126.326 283.606 126.99 278.051 Z M 248.272 245.738 C 248.999 239.58 253.952 233.253 261.858 231.131 C 269.785 229.01 277.025 232.11 280.521 237.144 C 287.075 247.091 302.078 245.989 307.528 235.169 C 310.17 229.905 309.713 223.684 306.28 219.001 C 295.191 202.982 274.489 195.635 254.43 200.984 C 234.332 206.331 219.599 223.1 217.27 242.722 C 215.854 254.685 227.902 263.423 238.93 258.452 C 244.048 256.141 247.606 251.293 248.272 245.738 Z M 158.909 369.58 C 149.443 362.38 151.523 347.462 162.675 342.738 C 167.731 340.575 173.473 341.2 177.865 344.382 L 178.072 344.508 C 181.193 346.317 184.564 347.712 188.08 348.669 C 195.53 350.709 207.326 352.059 223.161 347.836 C 238.972 343.635 248.689 336.539 254.308 331.026 C 256.929 328.424 259.218 325.511 261.152 322.369 L 261.256 322.163 C 266.332 311.177 281.315 309.552 288.201 319.27 C 291.384 323.764 291.884 329.694 289.532 334.79 L 275.343 328.591 C 289.532 334.79 289.512 334.832 289.512 334.832 L 289.512 334.853 L 289.469 334.937 L 289.387 335.125 L 289.158 335.582 L 288.451 336.914 C 287.868 337.974 287.056 339.369 285.974 340.992 C 283.811 344.238 280.565 348.482 275.967 353.016 C 266.686 362.173 252.164 372.242 230.587 377.985 C 209.012 383.748 191.576 382.146 179.237 378.775 C 173.121 377.111 168.294 375.03 164.923 373.24 C 163.092 372.284 161.324 371.243 159.617 370.099 L 159.2 369.788 L 159.035 369.683 L 158.972 369.621 L 158.93 369.621 L 158.909 369.58 Z M 351.034 263.673 L 334.91 195.053 C 326.504 159.287 322.322 141.414 310.523 132.427 C 306.612 129.431 302.161 127.204 297.396 125.83 C 283.247 121.795 266.935 129.366 234.269 144.495 C 210.092 155.73 197.982 161.328 185.416 165.3 C 181.067 166.674 176.655 167.902 172.202 168.962 C 159.407 172.062 146.341 173.457 120.165 176.266 C 84.838 180.052 67.192 181.945 56.561 192.869 C 52.983 196.572 50.089 200.859 47.968 205.54 C 41.601 219.585 45.784 237.457 54.209 273.224 L 70.334 341.821 C 89.27 422.468 157.451 447.851 203.476 455.695 C 217.52 458.088 224.53 459.275 246.066 453.282 C 267.58 447.291 273.198 442.587 284.453 433.141 C 321.365 402.201 369.99 344.297 351.034 263.673 Z" style=""/>
</svg>