<svg xmlns="http://www.w3.org/2000/svg" fill="#000000" viewBox="0 0 24 24">
  <path d="M9.75 2a4.75 4.75 0 1 0 0 9.5 4.75 4.75 0 0 0 0-9.5ZM6.5 6.75a3.25 3.25 0 1 1 6.5 0 3.25 3.25 0 0 1-6.5 0Z"/>
  <path d="M15.75 3a.75.75 0 0 0 0 1.5 2.25 2.25 0 0 1 0 4.5.75.75 0 0 0 0 1.5 3.75 3.75 0 1 0 0-7.5Z"/>
  <path d="M4.428 14.27c1.4-.8 3.283-1.27 5.322-1.27 2.04 0 3.922.47 5.322 1.27 1.378.788 2.428 1.99 2.428 3.48s-1.05 2.692-2.428 3.48c-1.4.8-3.283 1.27-5.322 1.27-2.04 0-3.922-.47-5.322-1.27C3.05 20.442 2 19.24 2 17.75s1.05-2.692 2.428-3.48Zm.744 1.303C4.017 16.233 3.5 17.03 3.5 17.75s.517 1.517 1.672 2.177C6.306 20.575 7.923 21 9.75 21c1.827 0 3.444-.425 4.578-1.073C15.483 19.267 16 18.47 16 17.75s-.517-1.517-1.672-2.177c-1.134-.648-2.751-1.073-4.578-1.073-1.827 0-3.444.425-4.578 1.073Z"/>
  <path d="M18.91 14.017a.75.75 0 0 0-.32 1.466c.792.173 1.425.472 1.843.814.418.342.567.677.567.953 0 .25-.12.545-.453.854-.335.311-.85.598-1.513.798a.75.75 0 1 0 .432 1.437c.823-.248 1.558-.631 2.102-1.136.546-.507.932-1.174.932-1.953 0-.865-.474-1.588-1.117-2.114-.644-.527-1.51-.908-2.472-1.119Z"/>
</svg>
