<svg xmlns="http://www.w3.org/2000/svg" fill="#000000" viewBox="0 0 24 24">
  <path d="M14.5 4.5a2.5 2.5 0 1 1-5 0 2.5 2.5 0 0 1 5 0Z"/>
  <path d="M12 9.77c-.356 0-.68.021-.861.052l-.892.15c-2.012.339-3.497 2.102-3.497 4.178a3.25 3.25 0 0 1-1.43 2.696l-.1.069a3.43 3.43 0 0 1-.823.406l-1.158.39a.75.75 0 0 1-.478-1.422l1.157-.39c.164-.055.32-.132.463-.228l.101-.069a1.75 1.75 0 0 0 .768-1.452c0-2.797 2.003-5.195 4.748-5.657l.89-.15A7.275 7.275 0 0 1 12 8.271c.387 0 .807.02 1.111.072l.89.15c2.746.462 4.749 2.86 4.749 5.657 0 .586.29 1.13.768 1.452l.1.069c.145.096.3.173.464.228l1.157.39a.75.75 0 0 1-.478 1.422l-1.158-.39a3.43 3.43 0 0 1-.822-.406l-.101-.069a3.25 3.25 0 0 1-1.43-2.696c0-2.076-1.485-3.839-3.497-4.178l-.892-.15A5.889 5.889 0 0 0 12 9.77Zm-3.1 5.78a.75.75 0 1 1 1.2.9l-.924 1.233-.022.029a4.528 4.528 0 0 1-.34.42 2.75 2.75 0 0 1-1.007.67c-.155.058-.316.098-.52.15l-.036.008-1.793.449a.935.935 0 0 0 .227 1.841h.683c1.546 0 3.05-.501 4.287-1.429L12.55 18.4a.75.75 0 1 1 .9 1.2l-.905.678.492.185c.534.2.775.29 1.017.366a9.252 9.252 0 0 0 2.243.407c.253.014.51.014 1.08.014h.938a.935.935 0 0 0 .227-1.841l-1.474-.369a48.41 48.41 0 0 0-.081-.02c-.476-.119-.851-.212-1.187-.406a2.751 2.751 0 0 1-.289-.192c-.308-.234-.54-.543-.834-.936l-.05-.067-.727-.969a.75.75 0 1 1 1.2-.9l.727.969c.368.491.471.618.591.709.042.031.086.06.132.087.13.075.287.121.882.27l1.474.368a2.435 2.435 0 0 1-.59 4.797h-.964c-.538 0-.839 0-1.138-.017a10.751 10.751 0 0 1-2.608-.473c-.286-.09-.568-.195-1.072-.384l-1.432-.537a8.645 8.645 0 0 1-4.734 1.411h-.683a2.435 2.435 0 0 1-.59-4.797l1.793-.448c.255-.064.324-.082.384-.105.173-.066.33-.17.457-.304.045-.047.088-.102.247-.313L8.9 15.55Z"/>
</svg>
