<svg xmlns="http://www.w3.org/2000/svg" fill="#000000" viewBox="0 0 24 24">
  <path fill-rule="evenodd" d="M6.775 5.25h10.45c.816 0 1.474 0 2.007.044.55.045 1.031.14 1.477.368.7.359 1.27.929 1.629 1.629.228.446.323.928.368 1.477.044.533.044 1.191.044 2.007v.119c.001.338.002.698-.128 1.02a1.75 1.75 0 0 1-.526.706 1.633 1.633 0 0 1-.346.21c-.003 1.612-.024 3.24-.169 4.636-.085.82-.215 1.589-.422 2.244-.203.646-.503 1.256-.979 1.679-.823.732-1.86 1.055-3.153 1.21-1.27.151-2.898.151-4.976.151h-.102c-2.078 0-3.706 0-4.976-.152-1.293-.154-2.33-.477-3.153-1.209-.476-.422-.776-1.033-.98-1.678-.206-.656-.336-1.425-.421-2.245-.145-1.395-.166-3.024-.169-4.637a1.634 1.634 0 0 1-.346-.209 1.75 1.75 0 0 1-.526-.706c-.13-.322-.13-.682-.128-1.02v-.119c0-.816 0-1.474.044-2.007.045-.55.14-1.031.368-1.477a3.75 3.75 0 0 1 1.629-1.629c.446-.228.928-.323 1.477-.368.533-.044 1.191-.044 2.007-.044Zm-3.023 8.059c.007 1.437.036 2.817.159 4.003.08.77.196 1.427.36 1.948.168.53.362.845.545 1.008.495.44 1.178.703 2.335.84 1.17.14 2.709.142 4.849.142s3.678-.001 4.849-.141c1.157-.138 1.84-.402 2.335-.841.183-.163.377-.478.545-1.008.164-.52.28-1.178.36-1.948.123-1.186.152-2.567.159-4.003l-4.998 1.499v.354c0 .51-.311.97-.786 1.16l-.7.28a4.75 4.75 0 0 1-3.528 0l-.7-.28a1.25 1.25 0 0 1-.786-1.16v-.354l-4.998-1.5Zm4.998-.067-5.392-1.618a7.34 7.34 0 0 1-.432-.137.539.539 0 0 1-.084-.037.25.25 0 0 1-.073-.099.539.539 0 0 1-.012-.091 7.29 7.29 0 0 1-.007-.452c0-.856 0-1.453.039-1.918.037-.456.107-.717.208-.915a2.25 2.25 0 0 1 .977-.978c.199-.101.46-.17.916-.208.465-.038 1.062-.039 1.918-.039h10.384c.856 0 1.453 0 1.918.039.456.037.717.107.916.208.42.215.762.557.977.978.101.198.17.46.208.915.038.465.039 1.062.039 1.918 0 .225 0 .355-.007.452a.532.532 0 0 1-.012.091.25.25 0 0 1-.073.099.54.54 0 0 1-.084.037 7.355 7.355 0 0 1-.432.137l-5.392 1.618V13c0-.69-.56-1.25-1.25-1.25h-4c-.69 0-1.25.56-1.25 1.25v.242Zm12.41-1.793-.002.001.001-.001Zm.07-.096.001-.002v.002Zm-18.46 0-.001-.002v.002Zm.07.096.002.001-.001-.001Zm7.41 1.801v1.742l.543.217c.775.31 1.64.31 2.414 0l.543-.217V13.25h-3.5ZM12 2.75c-.978 0-1.813.625-2.122 1.5a.75.75 0 0 1-1.414-.5 3.751 3.751 0 0 1 7.073 0 .75.75 0 0 1-1.415.5A2.251 2.251 0 0 0 12 2.75Z"/>
</svg>
